<?xml version="1.0" standalone="no"?>
<!DOCTYPE svg PUBLIC "-//W3C//DTD SVG 20010904//EN"
 "http://www.w3.org/TR/2001/REC-SVG-20010904/DTD/svg10.dtd">
<svg version="1.0" xmlns="http://www.w3.org/2000/svg"
 width="700.000000pt" height="700.000000pt" viewBox="0 0 700.000000 700.000000"
 preserveAspectRatio="xMidYMid meet">
<metadata>
Created by potrace 1.11, written by Peter Selinger 2001-2013
</metadata>
<g transform="translate(0.000000,700.000000) scale(0.100000,-0.100000)"
fill="#000000" stroke="none">
<path d="M2799 5536 c-2 -2 -49 -6 -104 -10 -55 -3 -111 -8 -125 -10 -14 -3
-52 -7 -85 -11 -33 -3 -78 -10 -100 -15 -22 -5 -53 -11 -70 -14 -53 -10 -69
-14 -130 -30 -33 -9 -67 -19 -75 -21 -8 -2 -49 -16 -90 -30 -337 -119 -581
-324 -727 -611 -43 -84 -91 -209 -108 -280 -30 -125 -37 -170 -55 -334 -9 -81
-6 -1346 3 -1395 3 -16 9 -52 12 -80 10 -70 42 -208 67 -285 20 -63 95 -235
111 -255 4 -5 26 -39 50 -75 23 -36 85 -108 137 -160 135 -136 283 -229 484
-304 98 -37 255 -81 322 -91 21 -4 47 -8 57 -11 10 -3 31 -7 47 -10 17 -2 42
-6 58 -8 15 -2 55 -7 89 -11 35 -4 75 -9 90 -12 16 -3 747 -8 1626 -10 l1597
-4 0 1021 0 1020 -669 0 -670 0 0 -332 c0 -183 0 -376 0 -428 l-1 -95 -787 1
c-873 1 -902 2 -1030 45 -83 27 -149 72 -194 133 -69 91 -70 103 -70 679 0
503 0 514 22 580 50 152 196 243 420 263 46 4 735 8 1532 8 l1447 0 0 593 0
593 -1539 0 c-846 0 -1540 -2 -1542 -4z"/>
</g>
</svg>
