<?xml version="1.0" encoding="UTF-8"?>
<svg width="57px" height="75px" viewBox="0 0 57 75" version="1.1" xmlns="http://www.w3.org/2000/svg" xmlns:xlink="http://www.w3.org/1999/xlink">
    <!-- Generator: Sketch 57.1 (83088) - https://sketch.com -->
    <title>BoBC ICON</title>
    <desc>Created with Sketch.</desc>
    <defs>
        <polygon id="path-1" points="0 0.0001 56.583 0.0001 56.583 75 0 75"></polygon>
    </defs>
    <g id="HOME---ATTEMPT-1" stroke="none" stroke-width="1" fill="none" fill-rule="evenodd">
        <g id="GALINT---HOME-PAGE---MOBILE" transform="translate(-132.000000, -671.000000)">
            <g id="TOURNAMENT-1" transform="translate(0.000000, 635.000000)">
                <g id="BoBC-ICON" transform="translate(132.000000, 36.000000)">
                    <g id="Group-3">
                        <mask id="mask-2" fill="white">
                            <use xlink:href="#path-1"></use>
                        </mask>
                        <g id="Clip-2"></g>
                        <path d="M-0.0002,38.9061 C-0.0002,56.9311 9.1408,69.5741 28.2918,75.0001 C47.4418,69.5741 56.5838,56.9311 56.5838,38.9061 L56.5838,16.3821 L28.2918,0.0001 L-0.0002,16.3821 L-0.0002,38.9061 Z" id="Fill-1" fill="#FFFFFF" mask="url(#mask-2)"></path>
                    </g>
                    <path d="M44.8358,63.4799 C48.5318,59.7669 50.7028,55.4279 52.7368,50.2139 C53.0598,49.0959 53.3288,47.9419 53.5458,46.7519 L44.4728,53.5229 L50.7848,38.2129 L38.5908,49.8789 L43.4968,28.6259 L31.8558,48.0809 L28.2918,22.2309 L24.7298,48.0809 L13.0868,28.6259 L17.9918,49.8779 L5.7998,38.2129 L12.1108,53.5219 L3.0368,46.7509 C3.2538,47.9379 3.5228,49.0899 3.8438,50.2059 C5.8868,55.4419 8.0658,59.7949 11.7878,63.5189 C15.9348,67.5009 21.4398,70.5149 28.2918,72.5419 C35.1658,70.5089 40.6848,67.4809 44.8358,63.4799" id="Fill-4" fill="#EAA001"></path>
                    <path d="M9.5985,50.2875 L2.8265,33.8595 L16.1105,46.5695 L10.4685,22.1285 L15.5385,30.6005 L15.5385,24.7315 L28.2705,17.3805 L41.0015,24.7315 L41.0015,30.6725 L46.1165,22.1265 L40.4735,46.5695 L53.7585,33.8605 L46.9865,50.2875 L53.7895,45.2095 C54.0745,43.2045 54.2215,41.1055 54.2215,38.9055 L54.2215,17.6975 L28.2915,2.7265 L2.3615,17.6975 L2.3615,38.9085 C2.3625,41.1065 2.5095,43.2045 2.7935,45.2085 L9.5985,50.2875 Z" id="Fill-6" fill="#003372"></path>
                </g>
            </g>
        </g>
    </g>
</svg>