<svg id="Layer_1" data-name="Layer 1" xmlns="http://www.w3.org/2000/svg" xmlns:xlink="http://www.w3.org/1999/xlink" viewBox="0 0 175 40"><defs><style>.cls-1{fill:#fff;}.cls-2{fill:none;}.cls-3{fill:url(#linear-gradient);}</style><linearGradient id="linear-gradient" x1="90.11" y1="41.69" x2="87.9" y2="15.72" gradientUnits="userSpaceOnUse"><stop offset="0" stop-color="#58009d"/><stop offset="1" stop-color="#00cfff"/></linearGradient></defs><path class="cls-1" d="M42.88,37.83V36.64H45.6v2.44a5.49,5.49,0,0,1-1.38.73,4.67,4.67,0,0,1-1.43.19,3.49,3.49,0,0,1-1.66-.35,2.35,2.35,0,0,1-1-1,3.69,3.69,0,0,1,0-3.2,2.56,2.56,0,0,1,1.13-1.05,3.62,3.62,0,0,1,1.57-.28,4.47,4.47,0,0,1,1.41.17,1.89,1.89,0,0,1,.78.54,2.38,2.38,0,0,1,.47.91l-1.71.3a.89.89,0,0,0-.35-.49,1.07,1.07,0,0,0-.64-.17,1.16,1.16,0,0,0-.93.4A1.94,1.94,0,0,0,41.56,37a2,2,0,0,0,.34,1.32,1.23,1.23,0,0,0,1,.4,1.77,1.77,0,0,0,.56-.09,2.58,2.58,0,0,0,.62-.29v-.54Z"/><path class="cls-1" d="M62.14,39h-2l-.28.94h-1.8l2.15-5.71h1.92l2.15,5.71H62.42Zm-.37-1.24-.63-2-.63,2Z"/><path class="cls-1" d="M76.78,34.19H79.1l.9,3.48.89-3.48h2.32V39.9H81.76V35.55L80.65,39.9H79.34l-1.11-4.35V39.9H76.78Z"/><path class="cls-1" d="M96.37,34.19h1.77V39.9H96.37Z"/><path class="cls-1" d="M111.39,34.19H113l2.15,3.16V34.19h1.67V39.9h-1.67l-2.14-3.13V39.9h-1.66Z"/><path class="cls-1" d="M132.87,37.83V36.64h2.73v2.44a5.37,5.37,0,0,1-1.39.73,4.61,4.61,0,0,1-1.42.19,3.47,3.47,0,0,1-1.66-.35,2.37,2.37,0,0,1-1-1,3.46,3.46,0,0,1-.35-1.57,3.25,3.25,0,0,1,.39-1.63,2.46,2.46,0,0,1,1.13-1.05,3.54,3.54,0,0,1,1.56-.28,4.58,4.58,0,0,1,1.42.17,2,2,0,0,1,.78.54,2.36,2.36,0,0,1,.46.91l-1.7.3a.91.91,0,0,0-.36-.49,1.07,1.07,0,0,0-.64-.17,1.12,1.12,0,0,0-.92.4,1.94,1.94,0,0,0-.35,1.28,2,2,0,0,0,.35,1.32,1.21,1.21,0,0,0,1,.4,1.79,1.79,0,0,0,.57-.09,2.53,2.53,0,0,0,.61-.29v-.54Z"/><path class="cls-2" d="M140.19,7.67H166.5v6.48H157V29.94h-7.3V14.15h-9.51Zm-31.08.11c0-.07,0-.11.11-.11h20.63a7.77,7.77,0,0,1,5.73,2.74,5.64,5.64,0,0,1,1.16,3.24V29.84c0,.07,0,.1-.11.1H129.7c-.07,0-.1,0-.1-.11V18.13a3.67,3.67,0,0,0-2.54-3.84,5,5,0,0,0-1.1-.14h-9.73V29.84c0,.07,0,.11-.1.11h-6.91a.1.1,0,0,1-.11-.11ZM97.36,7.67h7.31V30H97.36Zm-26.75,0h7.31v15.8h15V30H70.61Zm-22.22,0H56.7L67.16,30H59.5L58.13,27H47L45.6,30H37.94ZM8.5,21.24V16.37C8.5,10,12.3,7.67,19,7.67h15.5v6.48H19c-2,0-3.18.62-3.18,2.22v4.87c0,1.61,1.22,2.23,3.18,2.23h8.2V18.81h7.3V30H19C12.3,30,8.5,27.66,8.5,21.24Z"/><polygon class="cls-2" points="52.55 15.16 49.73 21.16 55.37 21.16 52.55 15.16"/><path class="cls-3" d="M19,0C2.59,0,.82,11.45.82,16.37v4.87C.82,26.17,2.59,37.62,19,37.62H31.41v-.5H19C3,37.12,1.32,26,1.32,21.24V16.37C1.32,11.6,3,.49,19,.49h154.7V21.24C173.68,26,172,37.12,156,37.12H143.59v.5H156c16.39,0,18.16-11.45,18.16-16.38V0Z"/><path class="cls-1" d="M34.48,18.81h-7.3v4.66H19c-2,0-3.18-.62-3.18-2.23V16.37c0-1.6,1.22-2.22,3.18-2.22h15.5V7.67H19C12.3,7.67,8.5,10,8.5,16.37v4.87C8.5,27.66,12.3,30,19,30h15.5Z"/><polygon class="cls-1" points="92.92 23.47 77.92 23.47 77.92 7.67 70.61 7.67 70.61 29.95 92.92 29.95 92.92 23.47"/><rect class="cls-1" x="97.36" y="7.67" width="7.31" height="22.27"/><polygon class="cls-1" points="149.7 29.95 157 29.95 157 14.15 166.5 14.15 166.5 7.67 140.19 7.67 140.19 14.15 149.7 14.15 149.7 29.95"/><path class="cls-1" d="M109.22,30h6.91c.07,0,.1,0,.1-.11V14.15H126a5,5,0,0,1,1.1.14,3.67,3.67,0,0,1,2.54,3.84V29.84c0,.07,0,.11.1.11h6.93c.07,0,.11,0,.11-.1V13.65a5.64,5.64,0,0,0-1.16-3.24,7.77,7.77,0,0,0-5.73-2.74H109.22c-.06,0-.09,0-.11.11V29.84A.1.1,0,0,0,109.22,30Z"/><path class="cls-1" d="M47,27H58.13L59.5,30h7.66L56.7,7.67H48.39L37.94,30H45.6Zm5.59-11.87,2.82,6H49.73Z"/></svg>