<svg id="Layer_1" data-name="Layer 1" xmlns="http://www.w3.org/2000/svg" xmlns:xlink="http://www.w3.org/1999/xlink" viewBox="0 0 44 40"><defs><style>.cls-1{fill:#fff;}.cls-2{fill:url(#linear-gradient);}</style><linearGradient id="linear-gradient" x1="28.03" y1="39.35" x2="21.38" y2="10.09" gradientUnits="userSpaceOnUse"><stop offset="0" stop-color="#58009d"/><stop offset="1" stop-color="#00cfff"/></linearGradient></defs><path class="cls-1" d="M19.31,15c-2.09,0-3.38.67-3.38,2.37v5.18c0,1.7,1.29,2.37,3.38,2.37H28V20h7.77V31.84H19.31c-7.11,0-11.15-2.43-11.15-9.25V17.41c0-6.82,4-9.25,11.15-9.25H35.79V15Z"/><path class="cls-2" d="M43.45.55l.06,38.9H16.15A15.62,15.62,0,0,1,.55,23.85v-7.7A15.62,15.62,0,0,1,16.15.55h27.3M44,0H16.15A16.15,16.15,0,0,0,0,16.15v7.7A16.15,16.15,0,0,0,16.15,40H44.06L44,0Z"/></svg>