<?xml version="1.0" encoding="utf-8"?>
<!-- Generator: Adobe Illustrator 25.0.1, SVG Export Plug-In . SVG Version: 6.00 Build 0)  -->
<svg version="1.1" id="Layer_1" xmlns="http://www.w3.org/2000/svg" xmlns:xlink="http://www.w3.org/1999/xlink" x="0px" y="0px"
	 viewBox="0 0 130 75" style="enable-background:new 0 0 130 75;" xml:space="preserve">
<style type="text/css">
	.st0{fill:url(#SVGID_1_);}
	.st1{fill:#09001E;}
	.st2{fill:#FBFBFB;}
	.st3{fill:#4235B6;}
	.st4{fill:url(#SVGID_2_);}
	.st5{fill:url(#SVGID_3_);}
	.st6{fill:url(#SVGID_4_);}
	.st7{fill:url(#SVGID_5_);}
	.st8{fill:url(#SVGID_6_);}
	.st9{fill:url(#SVGID_7_);}
	.st10{opacity:0.1;}
	.st11{clip-path:url(#SVGID_9_);}
	.st12{fill:url(#SVGID_10_);}
	.st13{fill:url(#SVGID_11_);}
	.st14{fill:url(#SVGID_12_);}
	.st15{fill:url(#SVGID_13_);}
	.st16{fill:url(#SVGID_14_);}
	.st17{fill:url(#SVGID_15_);}
	.st18{fill:url(#SVGID_16_);}
	.st19{fill:url(#SVGID_17_);}
	.st20{fill:url(#SVGID_18_);}
	.st21{fill:url(#SVGID_19_);}
</style>
<desc>Created with Sketch.</desc>
<g>
	
		<linearGradient id="SVGID_1_" gradientUnits="userSpaceOnUse" x1="65" y1="65.959" x2="65" y2="19.9501" gradientTransform="matrix(1 0 0 -1 0 76)">
		<stop  offset="0" style="stop-color:#4235B6"/>
		<stop  offset="1" style="stop-color:#00CFFF"/>
	</linearGradient>
	<path class="st0" d="M30.2,62.7l-0.8-0.4l0.1-0.7l1-6.3c-7.8,1-13.2,1.9-13.2,1.9L17,57.2L2.6,50l4.7-26.6L10,23
		c2.4-0.4,3.7-0.6,6.1-0.9l2.3-0.3v0c5.9-0.8,11.7-1.4,17.5-1.9l0-0.3c0-0.3,0.1-0.6,0.1-0.9l0.3-2.1l1-6.5l0.7-0.1
		C45.3,9.1,54.9,8.5,65,8.5S84.6,9,91.9,10l0.7,0.1l0.1,0.7l1.4,9c11.3,0.9,19.8,2.2,25.4,3.1L120,23l1.7,0.3l1.1,0.2l4.5,25.7
		l0.2,0.9l-0.8,0.4L113,57.2l-0.3-0.1c-0.1,0-5.4-0.9-13.2-1.9l1.1,6.9l-8.5,4.2l-0.3,0c0,0-0.6-0.1-1.6-0.3
		c-7.3-0.9-16-1.3-25.3-1.3S47,65.3,39.7,66.2c-1,0.2-1.6,0.3-1.6,0.3l-0.3,0L30.2,62.7z"/>
	<path class="st1" d="M126.4,49.6l-0.7-4.1l-0.5-2.9l-0.2-1.3l-0.2-1.4l-0.2-0.9l-0.1-0.6l-0.3-1.9l-0.6-3.1l-0.4-2.1v-0.1l-0.9-4.9
		l-0.4-2.1l0,0l-0.6-0.1l-1.5-0.2l-0.5-0.1c-6.1-0.9-14.7-2.2-26-3.1l-0.5-3.2l-0.8-4.6L91.8,11l0,0v-0.1C84.8,10,75.4,9.5,65,9.5
		S45.1,10,38.2,10.9l-0.9,5.9l0,0l-0.2,1l-0.2,1c0,0.3-0.1,0.6-0.1,0.8l-0.2,1c-7.4,0.6-13.6,1.3-18.7,2.1l0,0L16.3,23
		c-2.4,0.3-3.7,0.5-6.1,0.9l-2.1,0.3l-0.4,2.1L4.3,45.4l-0.7,4.1l13.5,6.7c0,0,5.9-1,14.4-2.1L31,57.9l-0.6,3.8l0,0l0.2,0.1l7.4,3.7
		c0,0,0.6-0.1,1.6-0.3c7-0.8,15.8-1.3,25.4-1.3s18.3,0.5,25.4,1.3c1,0.2,1.6,0.3,1.6,0.3l7.4-3.7l0.2-0.1l0,0L99,57.9l-0.6-3.7
		c8.5,1.1,14.4,2.1,14.4,2.1L126.4,49.6L126.4,49.6L126.4,49.6z"/>
	<path class="st2" d="M48.4,16C47.5,16,47,16,46.1,16.1C46.1,16.7,46,17,46,17.6c-1,0.1-1.6,0.1-2.6,0.2c-0.6,0.1-1-0.1-0.9-0.6
		c0.1-0.6,0.1-0.9,0.2-1.5c0.1-0.5,0.5-0.7,1.1-0.8c1.9-0.2,2.9-0.2,4.8-0.4l0.2-2c-1.9,0.1-2.9,0.2-4.8,0.3c-2,0.2-3.3,1-3.6,3
		c-0.1,0.6-0.1,0.9-0.2,1.5c-0.3,2,0.8,2.6,3,2.4c2-0.2,3-0.2,4.9-0.4C48.2,18,48.3,17.3,48.4,16z"/>
	<path class="st2" d="M66.7,16.9c-1.9,0-2.8,0-4.7,0c0-2,0.1-3,0.1-4.9c-0.9,0-1.3,0-2.2,0l-0.2,6.9c2.9-0.1,4.3-0.1,7.1,0
		C66.7,18.1,66.7,17.7,66.7,16.9z"/>
	<path class="st2" d="M70.3,12c-0.9,0-1.3,0-2.2,0c0.1,2.8,0.1,4.2,0.1,6.9c0.9,0,1.4,0,2.3,0C70.4,16.2,70.4,14.8,70.3,12z"/>
	<path class="st2" d="M84.9,19.6c0.9,0.1,1.4,0.1,2.3,0.2c-0.2-2-0.4-3-0.6-4.9c1.2,0.1,1.8,0.1,2.9,0.3c-0.1-0.8-0.2-1.2-0.3-2
		c-3.2-0.3-4.8-0.4-8.1-0.6c0.1,0.8,0.1,1.2,0.2,2c1.2,0.1,1.8,0.1,3,0.2C84.6,16.7,84.7,17.7,84.9,19.6z"/>
	<path class="st2" d="M72,19c0.9,0,1.3,0,2.2,0.1c0,0,0,0,0,0L74,14.1c1.2,0,1.8,0.1,3,0.1c0.1,0,0.2,0,0.3,0.1
		c0.5,0.2,0.9,0.7,0.9,1.2c0.1,1.5,0.2,2.2,0.3,3.6c0,0,0,0,0,0c0.9,0,1.3,0.1,2.2,0.1c0,0,0,0,0,0l-0.4-5c0-0.4-0.2-0.7-0.4-1
		c-0.5-0.5-1.1-0.9-1.8-1c-2.5-0.1-3.8-0.2-6.3-0.2c0,0,0,0,0,0L72,19C71.9,19,71.9,19,72,19C72,19,72,19,72,19z"/>
	<path class="st2" d="M52.1,18.3c1.4-0.1,2.1-0.1,3.6-0.1c0.2,0.4,0.2,0.5,0.4,0.9c1,0,1.5,0,2.4-0.1c-1.2-2.7-1.8-4.1-3-6.8
		c-1,0-1.5,0.1-2.6,0.1c-1.5,2.8-2.2,4.3-3.8,7.1c1-0.1,1.5-0.1,2.4-0.1C51.8,18.9,51.9,18.7,52.1,18.3z M54.1,14.5
		c0.3,0.7,0.5,1.1,0.8,1.8c-0.7,0-1.1,0-1.8,0.1C53.5,15.7,53.7,15.3,54.1,14.5L54.1,14.5z"/>
	<path class="st3" d="M36.2,42.7c-0.9,0-1.8-0.4-2.4-1c-0.6-0.7-0.9-1.5-0.7-2.4l1.2-11.9c0.2-2,2-3.8,4-4c5.4-0.4,11-0.7,16.4-0.9
		h0.2l-0.2,5.9h-0.2c-4.4,0.1-8.9,0.4-13.8,0.7l-0.1,1.1c4.9-0.3,9.5-0.6,13.8-0.7h0.2l-0.2,5.4h-0.2C49.7,35,45,35.2,40,35.6
		l-0.1,1.1c5-0.3,9.7-0.6,14.1-0.7h0.2l-0.2,5.9h-0.2c-5.8,0.2-11.6,0.5-17.4,0.9C36.4,42.7,36.3,42.7,36.2,42.7z"/>
	<path class="st1" d="M54.5,22.8c-0.1,2.2-0.1,3.3-0.2,5.5c-4.7,0.1-9.3,0.4-14,0.7l-0.1,1.5c4.7-0.3,9.4-0.6,14.1-0.7
		c-0.1,2-0.1,3-0.2,5c-4.8,0.1-9.5,0.4-14.3,0.7l-0.1,1.5c4.8-0.3,9.6-0.6,14.4-0.7c-0.1,2.2-0.1,3.3-0.2,5.5
		c-5.8,0.2-11.6,0.5-17.4,0.9c-0.1,0-0.2,0-0.3,0c-1.9,0-3.2-1.4-3-3.2c0.4-4,0.8-7.9,1.2-11.9c0.2-1.9,1.9-3.6,3.8-3.8
		C43.6,23.2,49.1,22.9,54.5,22.8 M54.9,22.3h-0.4c-5.4,0.2-11,0.5-16.4,0.9c-2.1,0.2-3.9,2-4.2,4.2l-1.2,11.9
		c-0.1,0.9,0.2,1.9,0.8,2.6c0.7,0.7,1.6,1.1,2.6,1.1c0.1,0,0.2,0,0.3,0c5.8-0.4,11.6-0.7,17.4-0.9l0.4,0v-0.4l0.1-1.6l0.1-3.9l0-0.4
		h-0.4c-4.4,0.1-9,0.4-13.9,0.7v-0.2l0-0.5c5-0.3,9.5-0.6,13.9-0.7h0.4v-0.4l0.1-1.5l0.1-3.4l0-0.4h-0.4c-4.3,0.1-8.8,0.3-13.6,0.7
		l0.1-0.7c4.9-0.3,9.3-0.6,13.6-0.7h0.4v-0.4l0.1-1.6l0.1-3.9L54.9,22.3L54.9,22.3z"/>
	<path class="st3" d="M76,41.8c-3.7-0.1-7.5-0.1-11.2-0.1c-2.8,0-5.7,0-8.5,0.1H56l0.5-19.2h0.2c2.4-0.1,3.6-0.1,6.1-0.1h0.2
		L63,35.8h0.5c4.1,0,8.3,0.1,12.4,0.2H76l0.2,5.9L76,41.8z"/>
	<path class="st1" d="M62.9,22.6c0,4.5-0.1,8.9-0.1,13.4h0.7c4.1,0,8.2,0.1,12.4,0.2c0.1,2.2,0.1,3.3,0.2,5.5
		c-3.7-0.1-7.5-0.1-11.2-0.1c-2.8,0-5.7,0-8.5,0.1c0.2-6.3,0.3-12.5,0.5-18.8C59.2,22.6,60.4,22.6,62.9,22.6 M63.3,22.2h-0.4
		c-2.4,0-3.6,0-6.1,0.1h-0.4v0.4l-0.5,18.8v0.4h0.4c2.8-0.1,5.7-0.1,8.5-0.1c3.7,0,7.5,0,11.2,0.1h0.4l0-0.4l-0.2-5.5l0-0.4l-0.4,0
		c-4.1-0.1-8.3-0.2-12.4-0.2h-0.3l0.1-13L63.3,22.2L63.3,22.2z"/>
	<path class="st3" d="M99.4,43.2C93.6,42.7,87.8,42.3,82,42c-2.1-0.1-3.9-1.8-4-3.8l-0.5-11.8c-0.1-0.9,0.3-1.9,0.9-2.6
		c0.6-0.7,1.5-1,2.4-1H81c5.4,0.3,11,0.7,16.4,1.1h0.2l0.6,5.9l-0.2,0c-4.3-0.4-8.8-0.7-13.8-1l0.1,1.1c5,0.3,9.5,0.6,13.9,1h0.2
		l0.6,5.4l-0.2,0c-4.4-0.4-9-0.8-14-1l0.1,1.1c5.1,0.3,9.7,0.6,14.2,1H99l0.6,5.9L99.4,43.2z"/>
	<path class="st1" d="M80.9,23H81c5.5,0.3,10.9,0.7,16.4,1.1c0.2,2.2,0.4,3.3,0.6,5.5c-4.7-0.4-9.3-0.8-14-1l0.1,1.5
		c4.7,0.3,9.4,0.6,14,1c0.2,2,0.3,3,0.5,5c-4.7-0.5-9.5-0.8-14.3-1.1l0.1,1.5c4.8,0.3,9.6,0.6,14.3,1.1l0.6,5.5
		c-5.8-0.5-11.6-0.9-17.4-1.2c-2-0.1-3.7-1.7-3.8-3.6c-0.2-4-0.3-7.9-0.5-11.8c-0.1-1.7,1.2-3.2,2.9-3.3C80.7,23,80.8,23,80.9,23
		 M80.9,22.6L80.9,22.6c-1,0-1.9,0.4-2.5,1.1c-0.7,0.7-1,1.7-1,2.7l0.3,6.1l0.2,5.8c0.1,2.1,2,3.9,4.2,4c5.8,0.3,11.6,0.7,17.4,1.2
		l0.5,0L99.8,43l0-0.3l-0.6-5.2l0-0.3l-0.3,0c-4.4-0.4-9-0.8-14-1l0-0.7c4.9,0.3,9.5,0.6,13.8,1l0.5,0L99.1,36l-0.5-5l0-0.3l-0.3,0
		c-4.3-0.4-8.8-0.7-13.7-1l0-0.4l0-0.3c4.8,0.3,9.3,0.6,13.5,1l0.5,0l-0.1-0.5l-0.6-5.5l0-0.3l-0.3,0c-5.4-0.5-10.9-0.9-16.4-1.1
		L80.9,22.6z"/>
	<path class="st3" d="M122.7,46.2c-5.7-0.9-11.5-1.7-17.3-2.3c-2.1-0.2-4-2.1-4.2-4.1l-1.3-11.9c-0.1-0.9,0.1-1.8,0.7-2.5
		c0.6-0.6,1.3-0.9,2.2-0.9c0.1,0,0.3,0,0.4,0c5.4,0.6,10.9,1.4,16.3,2.2l0.1,0l1,6l-0.3,0c-4.3-0.7-8.8-1.3-13.7-1.9l0.1,1.1
		c4.9,0.6,9.5,1.2,13.8,1.9l0.1,0l1,5.5l-0.3,0c-4.4-0.7-9-1.3-13.9-1.9l0.1,1.1c5,0.6,9.7,1.2,14.1,2l0.1,0l1,6L122.7,46.2z"/>
	<path class="st1" d="M102.7,24.7c0.1,0,0.2,0,0.4,0c5.5,0.6,10.9,1.4,16.3,2.2c0.4,2.2,0.6,3.3,1,5.5c-4.6-0.7-9.3-1.4-13.9-1.9
		l0.2,1.5c4.7,0.6,9.3,1.2,14,1.9c0.4,2,0.5,3,0.9,5c-4.7-0.8-9.5-1.4-14.2-2l0.2,1.5c4.8,0.6,9.5,1.2,14.3,2c0.4,2.2,0.6,3.3,1,5.5
		c-5.8-0.9-11.5-1.7-17.3-2.3c-2-0.2-3.8-2-4-3.9c-0.4-4-0.9-7.9-1.3-11.9C99.9,26,101,24.7,102.7,24.7 M102.7,24.3L102.7,24.3
		c-0.9,0-1.7,0.3-2.3,1c-0.6,0.7-0.9,1.7-0.8,2.6l0.8,6.9l0.6,5c0.2,2.1,2.2,4,4.4,4.2c5.7,0.7,11.6,1.4,17.3,2.3l0.5,0.1l-0.1-0.5
		l-1-5.5l-0.1-0.3l-0.3,0c-4.4-0.7-9-1.3-14-1.9l-0.1-0.7c4.9,0.6,9.4,1.2,13.7,1.9l0.5,0.1l-0.1-0.5l-0.3-1.9l-0.6-3.2l-0.1-0.3
		l-0.3,0c-4.3-0.7-8.8-1.3-13.7-1.9l0-0.2l-0.1-0.5c4.8,0.6,9.2,1.2,13.4,1.9l0.5,0.1l-0.1-0.5l-0.1-0.6l-0.9-4.9l0-0.3l-0.3,0
		c-5.4-0.8-10.9-1.6-16.3-2.2C103,24.3,102.9,24.3,102.7,24.3L102.7,24.3z"/>
	<path class="st3" d="M10.5,26.7l0.1,0c2.4-0.4,3.6-0.6,6-0.9l0.1,0l0.1,0.1c1.5,2,2.3,3,3.9,5c1.9-2.1,3.7-4.2,5.5-6.3l0.1-0.1h0.1
		c2.4-0.3,3.6-0.4,6.1-0.6l0.2,0l-2.1,19.3l-0.2,0c-2.6,0.2-3.9,0.4-6.4,0.7l-0.2,0l1.2-9.9c-1.8,2-3.6,4-5.4,6l-0.2,0.2l-0.1-0.2
		c-1.6-2-2.4-3-3.9-4.9l-1.6,9.9l-0.1,0c-2.6,0.4-3.8,0.6-6.4,1l-0.3,0L10.5,26.7z"/>
	<path class="st1" d="M32.4,24.1l-2,18.9c-2.6,0.2-3.9,0.4-6.4,0.7c0.4-3.4,0.9-6.8,1.3-10.2c-1.9,2.2-3.9,4.3-5.8,6.5
		c-1.7-2.1-2.5-3.1-4.2-5.2c-0.5,3.4-1.1,6.8-1.6,10.3c-2.6,0.4-3.9,0.6-6.4,1c1.1-6.4,2.2-12.7,3.4-19.1c2.4-0.4,3.6-0.6,6-0.9
		c1.6,2.1,2.4,3.1,4,5.2c1.9-2.1,3.8-4.3,5.7-6.5C28.8,24.5,30,24.4,32.4,24.1 M32.9,23.7l-0.5,0c-2.4,0.2-3.6,0.4-6.1,0.6l-0.2,0
		l-0.1,0.1c-1.8,2-3.6,4.1-5.4,6.1c-1.5-1.9-2.2-2.9-3.7-4.8l-0.1-0.2l-0.2,0c-2.4,0.3-3.6,0.5-6,0.9l-0.3,0l-0.1,0.3L6.9,45.9
		l-0.1,0.5l0.5-0.1c2.6-0.4,3.8-0.6,6.4-1l0.3,0l0-0.3l1.5-9.4c1.3,1.6,2.1,2.6,3.6,4.5l0.3,0.4l0.3-0.3c1.7-1.8,3.3-3.7,5-5.5
		l-0.5,3.7l-0.7,5.2l-0.1,0.5l0.5-0.1c2.6-0.3,3.8-0.4,6.4-0.7l0.3,0l0-0.3l2-18.9L32.9,23.7L32.9,23.7z"/>
	
		<linearGradient id="SVGID_2_" gradientUnits="userSpaceOnUse" x1="43.8431" y1="50.3808" x2="43.8431" y2="33.2973" gradientTransform="matrix(1 0 0 -1 0 76)">
		<stop  offset="0" style="stop-color:#4235B6"/>
		<stop  offset="1" style="stop-color:#00CFFF"/>
	</linearGradient>
	<path class="st4" d="M54.5,22.8c-0.1,2.2-0.1,3.3-0.2,5.5c-4.7,0.1-9.3,0.4-14,0.7l-0.1,1.5c4.7-0.3,9.4-0.6,14.1-0.7
		c-0.1,2-0.1,3-0.2,5c-4.8,0.1-9.5,0.4-14.3,0.7l-0.1,1.5c4.8-0.3,9.6-0.6,14.4-0.7c-0.1,2.2-0.1,3.3-0.2,5.5
		c-5.8,0.2-11.6,0.5-17.4,0.9c-2,0.2-3.5-1.3-3.3-3.2c0.4-4,0.8-7.9,1.2-11.9c0.2-1.9,1.9-3.6,3.8-3.8C43.6,23.3,49.1,23,54.5,22.8z
		"/>
	
		<linearGradient id="SVGID_3_" gradientUnits="userSpaceOnUse" x1="66.1245" y1="45.8738" x2="66.1245" y2="32.3137" gradientTransform="matrix(1 0 0 -1 0 76)">
		<stop  offset="0" style="stop-color:#4235B6"/>
		<stop  offset="1" style="stop-color:#00CFFF"/>
	</linearGradient>
	<path class="st5" d="M62.8,36c4.4,0,8.7,0.1,13.1,0.2c0.1,2.2,0.1,3.3,0.2,5.5c-6.6-0.2-13.2-0.2-19.7-0.1
		c0.2-6.3,0.3-12.5,0.5-18.8c2.4-0.1,3.7-0.1,6.1-0.1C62.8,27.1,62.8,31.5,62.8,36z"/>
	
		<linearGradient id="SVGID_4_" gradientUnits="userSpaceOnUse" x1="88.5852" y1="48.5996" x2="88.5852" y2="33.4682" gradientTransform="matrix(1 0 0 -1 0 76)">
		<stop  offset="0" style="stop-color:#4235B6"/>
		<stop  offset="1" style="stop-color:#00CFFF"/>
	</linearGradient>
	<path class="st6" d="M97.4,24.1c0.2,2.2,0.4,3.3,0.6,5.5c-4.7-0.4-9.3-0.8-14-1l0.1,1.5c4.7,0.3,9.4,0.6,14,1c0.2,2,0.3,3,0.5,5
		c-4.7-0.5-9.5-0.8-14.3-1.1l0.1,1.5c4.8,0.3,9.6,0.6,14.3,1.1l0.6,5.5c-5.8-0.5-11.6-0.9-17.4-1.2c-2-0.1-3.7-1.7-3.8-3.6
		c-0.2-4-0.3-7.9-0.5-11.8c-0.1-1.7,1.2-3.2,2.9-3.3c0.1,0,0.3,0,0.4,0C86.5,23.3,92,23.6,97.4,24.1z"/>
	
		<linearGradient id="SVGID_5_" gradientUnits="userSpaceOnUse" x1="111.4123" y1="47.3461" x2="111.4123" y2="31.8669" gradientTransform="matrix(1 0 0 -1 0 76)">
		<stop  offset="0" style="stop-color:#4235B6"/>
		<stop  offset="1" style="stop-color:#00CFFF"/>
	</linearGradient>
	<path class="st7" d="M119.4,26.9c0.4,2.2,0.6,3.3,1,5.5c-4.6-0.7-9.3-1.4-13.9-1.9l0.2,1.5c4.7,0.6,9.3,1.2,14,1.9
		c0.4,2,0.5,3,0.9,5c-4.7-0.8-9.5-1.4-14.2-2l0.2,1.5c4.8,0.6,9.5,1.2,14.3,2c0.4,2.2,0.6,3.3,1,5.5c-5.8-0.9-11.5-1.7-17.3-2.3
		c-2-0.2-3.8-2-4-3.9c-0.4-4-0.9-7.9-1.3-11.9c-0.2-1.9,1.1-3.4,3-3.2C108.6,25.3,114,26.1,119.4,26.9z"/>
	
		<linearGradient id="SVGID_6_" gradientUnits="userSpaceOnUse" x1="19.8653" y1="45.8738" x2="19.8653" y2="32.3137" gradientTransform="matrix(1 0 0 -1 0 76)">
		<stop  offset="0" style="stop-color:#4235B6"/>
		<stop  offset="1" style="stop-color:#00CFFF"/>
	</linearGradient>
	<path class="st8" d="M26.4,24.8c2.4-0.3,3.6-0.4,6.1-0.6l-2,18.9c-2.6,0.2-3.9,0.4-6.4,0.7c0.4-3.4,0.9-6.8,1.3-10.2
		c-1.9,2.2-3.9,4.3-5.8,6.5c-1.7-2.1-2.5-3.1-4.2-5.2c-0.5,3.4-1.1,6.8-1.6,10.3c-2.6,0.4-3.9,0.6-6.4,1c1.1-6.4,2.2-12.7,3.4-19.1
		c2.4-0.4,3.6-0.6,6-0.9c1.6,2.1,2.4,3.1,4,5.2C22.6,29.1,24.5,26.9,26.4,24.8z"/>
	
		<linearGradient id="SVGID_7_" gradientUnits="userSpaceOnUse" x1="65.015" y1="53.8353" x2="65.015" y2="20.6548" gradientTransform="matrix(1 0 0 -1 0 76)">
		<stop  offset="0" style="stop-color:#4235B6"/>
		<stop  offset="1" style="stop-color:#00CFFF"/>
	</linearGradient>
	<path class="st9" d="M36.2,41.9c-0.7,0-1.4-0.3-1.9-0.8c-0.4-0.5-0.6-1.1-0.5-1.8l1.2-11.9c0.2-1.6,1.6-3.1,3.2-3.3
		c5.2-0.4,10.5-0.7,15.7-0.9l-0.1,4.3c-4.3,0.1-8.7,0.4-13.5,0.7l-0.5,0L39.6,31l0.7,0c4.8-0.3,9.2-0.6,13.4-0.7l-0.1,3.8
		c-4.3,0.1-8.9,0.4-13.8,0.7l-0.5,0L39,37.5l0.7,0c4.9-0.3,9.4-0.6,13.7-0.7L53.3,41c-5.6,0.2-11.3,0.5-16.9,0.9
		C36.3,41.9,36.2,41.9,36.2,41.9z M75.2,36.7c-3.9-0.1-7.9-0.1-11.8-0.1h-1.3l0.1-13.3c-1.9,0-3,0-4.9,0.1l-0.5,17.6
		c2.6,0,5.3-0.1,7.9-0.1c3.5,0,7.1,0,10.6,0.1L75.2,36.7z M98.3,38.1c-4.4-0.4-8.9-0.7-13.8-1l-0.5,0l-0.2-2.7l0.7,0
		c4.8,0.3,9.3,0.6,13.6,1l-0.4-3.8c-4.3-0.4-8.7-0.7-13.5-1l-0.5,0L83.4,28l0.7,0c4.7,0.3,9.1,0.6,13.3,1l-0.5-4.3
		c-5.3-0.5-10.6-0.8-15.9-1.1h-0.1c-0.7,0-1.4,0.3-1.8,0.8c-0.5,0.5-0.8,1.2-0.7,2l0.5,11.8c0.1,1.6,1.5,3,3.2,3.1
		c5.5,0.3,11.2,0.7,16.7,1.2L98.3,38.1z M121.3,40.9c-4.4-0.7-8.9-1.3-13.8-1.9L107,39l-0.4-2.7l0.8,0.1c4.8,0.6,9.2,1.2,13.4,1.8
		l-0.7-3.8c-4.3-0.7-8.7-1.3-13.5-1.9l-0.5-0.1l-0.4-2.7l0.8,0.1c4.7,0.6,9,1.1,13.1,1.8l-0.8-4.3c-5.3-0.8-10.6-1.5-15.8-2.1
		c-0.1,0-0.2,0-0.3,0c-0.6,0-1.2,0.2-1.6,0.7c-0.4,0.5-0.6,1.2-0.5,1.9l1.3,11.9c0.2,1.7,1.8,3.2,3.5,3.4c5.5,0.6,11,1.4,16.5,2.2
		L121.3,40.9z M8,45.2c1.9-0.3,3.1-0.5,5.2-0.8l1.8-11.2l0.9,1.1c1.5,1.9,2.3,2.9,3.7,4.7c1.8-2,3.6-4,5.3-5.9l1.3-1.4L24.7,43
		c2-0.2,3.2-0.3,5.2-0.5l1.9-17.7c-1.9,0.2-3.1,0.3-5.1,0.5c-1.8,2.1-3.7,4.2-5.5,6.3l-0.5,0.5l-0.4-0.6c-1.6-2-2.4-3.1-3.8-5
		c-2.1,0.3-3.2,0.5-5.3,0.8L8,45.2z"/>
	<g class="st10">
		<g>
			<defs>
				<path id="SVGID_8_" d="M36.2,41.9c-0.7,0-1.4-0.3-1.9-0.8c-0.4-0.5-0.6-1.1-0.5-1.8l1.2-11.9c0.2-1.6,1.6-3.1,3.2-3.3
					c5.2-0.4,10.5-0.7,15.7-0.9l-0.1,4.3c-4.3,0.1-8.7,0.4-13.5,0.7l-0.5,0L39.6,31l0.7,0c4.8-0.3,9.2-0.6,13.4-0.7l-0.1,3.8
					c-4.3,0.1-8.9,0.4-13.8,0.7l-0.5,0L39,37.5l0.7,0c4.9-0.3,9.4-0.6,13.7-0.7L53.3,41c-5.6,0.2-11.3,0.5-16.9,0.9
					C36.3,41.9,36.2,41.9,36.2,41.9z M75.2,36.7c-3.9-0.1-7.9-0.1-11.8-0.1h-1.3l0.1-13.3c-1.9,0-3,0-4.9,0.1l-0.5,17.6
					c2.6,0,5.3-0.1,7.9-0.1c3.5,0,7.1,0,10.6,0.1L75.2,36.7z M98.3,38.1c-4.4-0.4-8.9-0.7-13.8-1l-0.5,0l-0.2-2.7l0.7,0
					c4.8,0.3,9.3,0.6,13.6,1l-0.4-3.8c-4.3-0.4-8.7-0.7-13.5-1l-0.5,0L83.4,28l0.7,0c4.7,0.3,9.1,0.6,13.3,1l-0.5-4.3
					c-5.3-0.5-10.6-0.8-15.9-1.1h-0.1c-0.7,0-1.4,0.3-1.8,0.8c-0.5,0.5-0.8,1.2-0.7,2l0.5,11.8c0.1,1.6,1.5,3,3.2,3.1
					c5.5,0.3,11.2,0.7,16.7,1.2L98.3,38.1z M121.3,40.9c-4.4-0.7-8.9-1.3-13.8-1.9L107,39l-0.4-2.7l0.8,0.1
					c4.8,0.6,9.2,1.2,13.4,1.8l-0.7-3.8c-4.3-0.7-8.7-1.3-13.5-1.9l-0.5-0.1l-0.4-2.7l0.8,0.1c4.7,0.6,9,1.1,13.1,1.8l-0.8-4.3
					c-5.3-0.8-10.6-1.5-15.8-2.1c-0.1,0-0.2,0-0.3,0c-0.6,0-1.2,0.2-1.6,0.7c-0.4,0.5-0.6,1.2-0.5,1.9l1.3,11.9
					c0.2,1.7,1.8,3.2,3.5,3.4c5.5,0.6,11,1.4,16.5,2.2L121.3,40.9z M8,45.2c1.9-0.3,3.1-0.5,5.2-0.8l1.8-11.2l0.9,1.1
					c1.5,1.9,2.3,2.9,3.7,4.7c1.8-2,3.6-4,5.3-5.9l1.3-1.4L24.7,43c2-0.2,3.2-0.3,5.2-0.5l1.9-17.7c-1.9,0.2-3.1,0.3-5.1,0.5
					c-1.8,2.1-3.7,4.2-5.5,6.3l-0.5,0.5l-0.4-0.6c-1.6-2-2.4-3.1-3.8-5c-2.1,0.3-3.2,0.5-5.3,0.8L8,45.2z"/>
			</defs>
			<clipPath id="SVGID_9_">
				<use xlink:href="#SVGID_8_"  style="overflow:visible;"/>
			</clipPath>
			<g class="st11">
				
					<rect x="-30" y="32.9" transform="matrix(0.7071 -0.7071 0.7071 0.7071 -27.2401 11.5003)" class="st2" width="60.6" height="11.4"/>
				
					<rect x="39" y="32.9" transform="matrix(0.7071 -0.7071 0.7071 0.7071 -7.0287 60.2946)" class="st2" width="60.6" height="11.4"/>
				
					<rect x="-1.2" y="31.8" transform="matrix(0.7071 -0.7071 0.7071 0.7071 -15.3422 35.7723)" class="st2" width="73.5" height="9.3"/>
				
					<rect x="12.4" y="36.8" transform="matrix(0.7071 -0.7071 0.7071 0.7071 -12.94 46.0293)" class="st2" width="73.5" height="3.6"/>
				
					<rect x="79.2" y="36.8" transform="matrix(0.7071 -0.7071 0.7071 0.7071 6.65 93.3213)" class="st2" width="73.5" height="3.6"/>
				
					<rect x="62" y="33.8" transform="matrix(0.7071 -0.7071 0.7071 0.7071 1.6062 81.1475)" class="st2" width="73.5" height="9.7"/>
			</g>
		</g>
	</g>
	<path class="st2" d="M44.2,46.7c3.4-0.2,5.2,0.9,4.9,4.2L49,53.4c-0.1,3.3-3.1,4.8-6,4.9c-1.4,0.1-2.1,0.1-3.4,0.2
		c-3.6,0.3-5.4-0.7-4.9-4.1c0.2-1,0.2-1.5,0.4-2.5c0.4-3.1,3-4.9,6-5C42.3,46.8,42.9,46.8,44.2,46.7z M43.3,54.9
		c1-0.1,1.7-0.4,1.8-1.3c0.1-1,0.2-1.5,0.3-2.5c0.1-0.8-0.5-1.1-1.5-1.1c-1.3,0.1-2,0.1-3.3,0.2c-1,0.1-1.7,0.5-1.8,1.3l-0.3,2.5
		c-0.1,0.8,0.5,1.1,1.5,1C41.3,55,42,55,43.3,54.9L43.3,54.9z"/>
	<path class="st2" d="M54.9,55.9l-0.1,1.8c-1.6,0-2.4,0.1-3.9,0.1c0.3-3.9,0.5-7.7,0.8-11.6c3.2-0.1,4.8-0.2,8-0.2
		c3.4-0.1,5.3,1.1,5.3,4.5v0.8c0,3.3-2,4.5-5.6,4.6C57.6,55.9,56.7,55.9,54.9,55.9z M55.2,49.5c-0.1,1.2-0.1,1.9-0.2,3.1
		c1.8-0.1,2.6-0.1,4.4-0.1c1,0,1.7-0.3,1.7-1.2l0-0.8c0-0.8-0.6-1.1-1.6-1.1C57.9,49.4,57,49.4,55.2,49.5L55.2,49.5z"/>
	<path class="st2" d="M79.2,46.3l0.3,3.4c-2.8-0.1-5.7-0.2-8.5-0.3l0,0.9c2.9,0,5.7,0.1,8.6,0.3c0.1,1.2,0.1,1.8,0.2,3.1
		c-2.9-0.1-5.8-0.2-8.7-0.3l0,0.9c2.9,0,5.8,0.1,8.7,0.3c0.1,1.3,0.2,2,0.3,3.4c-3.7-0.2-7.4-0.3-11.1-0.3c-1,0-1.8-0.8-1.8-1.7
		c0-3.3-0.1-4.9-0.1-8.1c0-0.9,0.7-1.7,1.6-1.7c0,0,0,0,0.1,0C72.2,46.1,75.7,46.2,79.2,46.3z"/>
	<path class="st2" d="M91.4,53.3L90.6,47c1.5,0.1,2.2,0.2,3.7,0.3c0.6,3.9,1.2,7.8,1.8,11.6c-1.6-0.1-2.4-0.2-3.9-0.3
		C90.1,56.5,88,54.2,86,52c0.3,2.5,0.4,3.8,0.7,6.3c-1.6-0.1-2.4-0.1-3.9-0.2c-0.3-3.9-0.7-7.7-1-11.6c1.5,0.1,2.2,0.1,3.7,0.2
		C87.4,48.9,89.4,51.1,91.4,53.3z"/>
	
		<linearGradient id="SVGID_10_" gradientUnits="userSpaceOnUse" x1="41.8595" y1="26.3853" x2="41.8595" y2="14.4386" gradientTransform="matrix(1 0 0 -1 0 76)">
		<stop  offset="0" style="stop-color:#FBFBFB"/>
		<stop  offset="1" style="stop-color:#00CFFF"/>
	</linearGradient>
	<path class="st12" d="M38.5,58.1c-1.5,0-2.4-0.3-3-0.9c-0.5-0.6-0.6-1.4-0.4-2.7l0.4-2.5c0.3-2.7,2.5-4.5,5.6-4.6
		c1.3-0.1,2-0.1,3.2-0.2c0.3,0,0.5,0,0.8,0c1.4,0,2.4,0.3,3,0.9c0.6,0.6,0.8,1.5,0.7,2.8l-0.2,2.5c-0.1,3-2.9,4.4-5.6,4.4
		c-1.4,0.1-2.1,0.1-3.4,0.2C39.1,58.1,38.8,58.1,38.5,58.1z M44.1,49.6c-0.1,0-0.2,0-0.3,0c-1.3,0.1-2,0.1-3.3,0.2
		c-1.7,0.1-2.1,1-2.2,1.7L38,54c-0.1,0.4,0,0.8,0.3,1.1c0.3,0.3,0.7,0.5,1.4,0.5l0,0c0.1,0,0.2,0,0.4,0c1.3-0.1,2-0.1,3.4-0.2
		c1.7-0.1,2.1-1,2.2-1.7l0.3-2.5c0.1-0.4,0-0.8-0.3-1.1C45.2,49.7,44.8,49.6,44.1,49.6L44.1,49.6z"/>
	
		<linearGradient id="SVGID_11_" gradientUnits="userSpaceOnUse" x1="57.9726" y1="26.3853" x2="57.9726" y2="14.4386" gradientTransform="matrix(1 0 0 -1 0 76)">
		<stop  offset="0" style="stop-color:#FBFBFB"/>
		<stop  offset="1" style="stop-color:#00CFFF"/>
	</linearGradient>
	<path class="st13" d="M52.1,46.7c2.9-0.1,4.5-0.2,7.6-0.2h0.2c3.3,0,4.6,1.2,4.6,4v0.8c0,2.8-1.5,4.1-5.2,4.1
		c-1.8,0-2.7,0.1-4.5,0.1h-0.4l-0.1,1.8c-1.2,0-1.9,0.1-3,0.1L52.1,46.7z M59.6,48.9C57.8,49,57,49,55.2,49h-0.4l-0.2,4h0.5
		c1.8-0.1,2.6-0.1,4.4-0.1c1.8,0,2.1-1,2.1-1.6l0-0.8c0-0.4-0.1-0.8-0.4-1.1C60.9,49.1,60.4,48.9,59.6,48.9L59.6,48.9z"/>
	
		<linearGradient id="SVGID_12_" gradientUnits="userSpaceOnUse" x1="73.5596" y1="26.3853" x2="73.5596" y2="14.4386" gradientTransform="matrix(1 0 0 -1 0 76)">
		<stop  offset="0" style="stop-color:#FBFBFB"/>
		<stop  offset="1" style="stop-color:#00CFFF"/>
	</linearGradient>
	<path class="st14" d="M79.6,57.4c-3.5-0.2-7.1-0.3-10.6-0.3c-0.7,0-1.3-0.6-1.4-1.3l-0.1-8.1c0-0.3,0.1-0.7,0.4-0.9
		c0.2-0.2,0.5-0.3,0.8-0.3c3.3,0.1,6.7,0.2,10,0.3l0.2,2.5c-2.7-0.1-5.4-0.2-8-0.3h-0.5l0.1,1.8h0.4c2.7,0,5.5,0.1,8.2,0.3l0.2,2.2
		C76.5,53,73.8,53,71,52.9h-0.5l0.1,1.8H71c2.8,0,5.6,0.1,8.3,0.3L79.6,57.4z"/>
	
		<linearGradient id="SVGID_13_" gradientUnits="userSpaceOnUse" x1="88.886" y1="26.3853" x2="88.886" y2="14.4386" gradientTransform="matrix(1 0 0 -1 0 76)">
		<stop  offset="0" style="stop-color:#FBFBFB"/>
		<stop  offset="1" style="stop-color:#00CFFF"/>
	</linearGradient>
	<path class="st15" d="M95.6,58.5c-1.2-0.1-1.9-0.2-3.2-0.3c-2.1-2.2-4.1-4.4-6.1-6.5l-0.9-1l0.8,7.1c-1.1-0.1-1.8-0.1-3-0.2
		l-1-10.7c1.1,0.1,1.8,0.1,3,0.2c1.9,2.2,3.9,4.4,5.9,6.5l1,1l-1-7.1c1,0.1,1.7,0.1,2.8,0.2L95.6,58.5z"/>
	
		<linearGradient id="SVGID_14_" gradientUnits="userSpaceOnUse" x1="44.4128" y1="60.3634" x2="44.4128" y2="53.7513" gradientTransform="matrix(1 0 0 -1 0 76)">
		<stop  offset="0" style="stop-color:#FBFBFB"/>
		<stop  offset="1" style="stop-color:#00CFFF"/>
	</linearGradient>
	<path class="st16" d="M42.5,19.5c-0.9,0-1.4-0.2-1.7-0.5c-0.3-0.4-0.4-0.9-0.3-1.6l0.2-1.5c0.2-1.7,1.3-2.6,3.3-2.8
		c1.8-0.1,2.7-0.2,4.4-0.3l-0.1,1.4c-1.8,0.1-2.7,0.2-4.6,0.3c-1,0.1-1.3,0.6-1.3,1l-0.2,1.5c0,0.2,0,0.5,0.2,0.7
		c0.2,0.2,0.5,0.3,0.8,0.3h0.2c1-0.1,1.5-0.1,2.6-0.2l0.2,0l0.2-1.5c0.6,0,1.1-0.1,1.7-0.1l-0.3,2.9c-1.8,0.1-2.8,0.2-4.7,0.3
		C42.9,19.5,42.7,19.5,42.5,19.5L42.5,19.5z"/>
	
		<linearGradient id="SVGID_15_" gradientUnits="userSpaceOnUse" x1="63.1678" y1="60.3634" x2="63.1678" y2="53.7513" gradientTransform="matrix(1 0 0 -1 0 76)">
		<stop  offset="0" style="stop-color:#FBFBFB"/>
		<stop  offset="1" style="stop-color:#00CFFF"/>
	</linearGradient>
	<path class="st17" d="M60.1,12.3l1.6,0l-0.1,4.9H62c1.1,0,1.9,0,2.8,0h1.6v1.4h-1.9c-1.4,0-2.7,0-4.6,0.1L60.1,12.3z"/>
	
		<linearGradient id="SVGID_16_" gradientUnits="userSpaceOnUse" x1="69.2776" y1="60.3634" x2="69.2776" y2="53.7513" gradientTransform="matrix(1 0 0 -1 0 76)">
		<stop  offset="0" style="stop-color:#FBFBFB"/>
		<stop  offset="1" style="stop-color:#00CFFF"/>
	</linearGradient>
	<path class="st18" d="M70.2,18.6c-0.6,0-1.1,0-1.7,0l-0.1-6.3l1.6,0L70.2,18.6z"/>
	
		<linearGradient id="SVGID_17_" gradientUnits="userSpaceOnUse" x1="85.3671" y1="60.3634" x2="85.3671" y2="53.7513" gradientTransform="matrix(1 0 0 -1 0 76)">
		<stop  offset="0" style="stop-color:#FBFBFB"/>
		<stop  offset="1" style="stop-color:#00CFFF"/>
	</linearGradient>
	<path class="st19" d="M86.9,19.5c-0.6-0.1-1.1-0.1-1.7-0.1l-0.6-4.9l-0.2,0c-1.1-0.1-1.7-0.1-2.7-0.2l-0.1-1.4
		c2.9,0.2,4.5,0.3,7.5,0.6l0.2,1.4c-0.9-0.1-1.5-0.1-2.6-0.2l-0.4,0L86.9,19.5z"/>
	
		<linearGradient id="SVGID_18_" gradientUnits="userSpaceOnUse" x1="76.2016" y1="60.3634" x2="76.2016" y2="53.7513" gradientTransform="matrix(1 0 0 -1 0 76)">
		<stop  offset="0" style="stop-color:#FBFBFB"/>
		<stop  offset="1" style="stop-color:#00CFFF"/>
	</linearGradient>
	<path class="st20" d="M80.4,19c-0.6,0-1-0.1-1.7-0.1l-0.3-3.4c0-0.7-0.4-1.3-1.1-1.5c-0.1,0-0.3-0.1-0.4-0.1
		c-1.2-0.1-1.8-0.1-3-0.1h-0.3l0.3,4.9l-1.7-0.1L72,12.4c2.4,0.1,3.6,0.1,6,0.2c0.6,0.1,1.2,0.4,1.6,0.8c0.2,0.2,0.3,0.5,0.4,0.9
		L80.4,19z"/>
	
		<linearGradient id="SVGID_19_" gradientUnits="userSpaceOnUse" x1="53.8824" y1="60.3634" x2="53.8824" y2="53.7513" gradientTransform="matrix(1 0 0 -1 0 76)">
		<stop  offset="0" style="stop-color:#FBFBFB"/>
		<stop  offset="1" style="stop-color:#00CFFF"/>
	</linearGradient>
	<path class="st21" d="M49.7,19c1.4-2.5,2.1-3.9,3.5-6.5c0.8,0,1.3-0.1,2.2-0.1c1,2.5,1.6,3.8,2.7,6.2l-1.8,0.1
		c-0.1-0.2-0.4-0.9-0.4-0.9h-0.2c-1.4,0.1-2.1,0.1-3.6,0.1h-0.2c0,0-0.4,0.7-0.5,0.9C50.8,19,50.3,19,49.7,19z M53.9,14.4
		c-0.4,0.8-0.6,1.1-1,1.9l-0.2,0.5l0.5,0c0.7,0,1.1,0,1.8-0.1l0.4,0l-0.2-0.4c-0.3-0.7-0.5-1.1-0.8-1.8l-0.2-0.6L53.9,14.4z"/>
</g>
</svg>
