<?xml version="1.0" encoding="UTF-8"?>
<svg width="80px" height="75px" viewBox="0 0 80 75" version="1.1" xmlns="http://www.w3.org/2000/svg" xmlns:xlink="http://www.w3.org/1999/xlink">
    <!-- Generator: Sketch 57.1 (83088) - https://sketch.com -->
    <title>PWH ICON</title>
    <desc>Created with Sketch.</desc>
    <defs>
        <polygon id="path-1" points="0.553125 0.6759375 79.7679276 0.6759375 79.7679276 73.0263158 0.553125 73.0263158"></polygon>
        <path d="M38.4414474,6.06019737 L35.2263158,9.27236842 L32.0111842,6.06019737 C28.4881579,2.54111842 23.8036184,0.600986842 18.8210526,0.600986842 L18.8210526,0.600986842 C13.8384868,0.600986842 9.15296053,2.54111842 5.63092105,6.06019737 L5.63092105,6.06019737 C2.10789474,9.57828947 0.16875,14.2569079 0.16875,19.2315789 L0.16875,19.2315789 C0.16875,24.2072368 2.10789474,28.8858553 5.63092105,32.4039474 L5.63092105,32.4039474 L35.2263158,61.9726974 L64.8226974,32.4039474 C68.3447368,28.8858553 70.2838816,24.2072368 70.2838816,19.2315789 L70.2838816,19.2315789 C70.2838816,14.2569079 68.3447368,9.57828947 64.8226974,6.06019737 L64.8226974,6.06019737 C61.2996711,2.54111842 56.6151316,0.600986842 51.6315789,0.600986842 L51.6315789,0.600986842 C46.6490132,0.600986842 41.9644737,2.54111842 38.4414474,6.06019737 L38.4414474,6.06019737 Z" id="path-3"></path>
    </defs>
    <g id="HOME---ATTEMPT-1" stroke="none" stroke-width="1" fill="none" fill-rule="evenodd">
        <g id="GALINT---HOME-PAGE---MOBILE" transform="translate(-120.000000, -871.000000)">
            <g id="TOURNAMENT-2" transform="translate(0.000000, 835.000000)">
                <g id="PWH-ICON" transform="translate(120.000000, 36.000000)">
                    <g id="Group-24" transform="translate(0.000000, 0.146053)">
                        <g id="Group-3" transform="translate(0.000000, 0.986842)">
                            <mask id="mask-2" fill="white">
                                <use xlink:href="#path-1"></use>
                            </mask>
                            <g id="Clip-2"></g>
                            <path d="M72.9720395,7.46516447 C63.9108553,-1.58713816 49.2217105,-1.58713816 40.1605263,7.46516447 C31.0993421,-1.58713816 16.4101974,-1.58713816 7.34901316,7.46516447 C-1.71217105,16.5174671 -1.71217105,31.1937829 7.34901316,40.2460855 L40.1605263,73.0270066 L72.9720395,40.2460855 C82.0332237,31.1937829 82.0332237,16.5174671 72.9720395,7.46516447" id="Fill-1" fill="#540022" mask="url(#mask-2)"></path>
                        </g>
                        <path d="M72.9720395,6.78868421 C63.9108553,-2.26263158 49.2217105,-2.26263158 40.1605263,6.78868421 C31.0993421,-2.26263158 16.4101974,-2.26263158 7.34901316,6.78868421 C-1.71217105,15.8409868 -1.71217105,30.5173026 7.34901316,39.5696053 L40.1605263,72.3505263 L72.9720395,39.5696053 C82.0332237,30.5173026 82.0332237,15.8409868 72.9720395,6.78868421" id="Fill-4" fill="#D2003F"></path>
                        <path d="M10.5649342,36.3515132 C7.04289474,32.8334211 5.10276316,28.1548026 5.10276316,23.1791447 C5.10276316,18.2034868 7.04289474,13.5258553 10.5649342,10.0077632 C14.0869737,6.48769737 18.7715132,4.54855263 23.7550658,4.54855263 C28.7376316,4.54855263 33.4221711,6.48769737 36.9451974,10.0077632 L40.1603289,13.2199342 L43.3754605,10.0077632 C46.8984868,6.48769737 51.5830263,4.54855263 56.5655921,4.54855263 C61.5491447,4.54855263 66.2336842,6.48769737 69.7567105,10.0077632 C73.27875,13.5258553 75.2188816,18.2034868 75.2188816,23.1791447 C75.2188816,28.1548026 73.27875,32.8334211 69.7567105,36.3515132 L40.1603289,65.9202632 L10.5649342,36.3515132 Z" id="Fill-6" fill="#9E0035"></path>
                        <path d="M23.7552632,6.21236842 C28.7378289,6.21236842 33.4223684,8.15052632 36.9453947,11.6696053 L40.1605263,14.8827632 L43.3756579,11.6696053 C46.8986842,8.15052632 51.5832237,6.21236842 56.5657895,6.21236842 C61.5493421,6.21236842 66.2338816,8.15052632 69.7569079,11.6696053 C73.0815789,14.9913158 74.9960526,19.3482237 75.1993421,24.0110526 C75.2111842,23.7347368 75.2180921,23.4584211 75.2180921,23.1791447 C75.2180921,18.2034868 73.2789474,13.5258553 69.7569079,10.0077632 C66.2338816,6.48769737 61.5493421,4.54855263 56.5657895,4.54855263 C51.5832237,4.54855263 46.8986842,6.48769737 43.3756579,10.0077632 L40.1605263,13.2199342 L36.9453947,10.0077632 C33.4223684,6.48769737 28.7378289,4.54855263 23.7552632,4.54855263 C18.7717105,4.54855263 14.0871711,6.48769737 10.5651316,10.0077632 C7.04210526,13.5258553 5.10296053,18.2034868 5.10296053,23.1791447 C5.10296053,23.4584211 5.10986842,23.7347368 5.12171053,24.0110526 C5.32598684,19.3482237 7.23947368,14.9913158 10.5651316,11.6705921 C14.0871711,8.15052632 18.7717105,6.21236842 23.7552632,6.21236842" id="Fill-8" fill="#540022"></path>
                        <path d="M4.17453947,24.6770724 C4.88111842,24.6770724 5.23440789,24.5882566 5.23440789,23.6774013 C5.23440789,22.7655592 4.88111842,22.6777303 4.17453947,22.6777303 L3.37914474,22.6777303 C3.09986842,22.6777303 2.93802632,22.8247697 2.93802632,23.1188487 L2.93802632,24.2359539 C2.93802632,24.5152303 3.09986842,24.6770724 3.37914474,24.6770724 L4.17453947,24.6770724 Z M4.08572368,20.1484539 C6.70578947,20.1484539 7.76565789,21.2655592 7.76565789,23.6774013 C7.76565789,26.0892434 6.70578947,27.2063487 4.08572368,27.2063487 L3.37914474,27.2063487 C3.09986842,27.2063487 2.93802632,27.3533882 2.93802632,27.6474671 L2.93802632,30.0000987 C2.93802632,30.2931908 2.79197368,30.4412171 2.49690789,30.4412171 L0.848881579,30.4412171 C0.569605263,30.4412171 0.407763158,30.279375 0.407763158,30.0000987 L0.407763158,20.604375 C0.407763158,20.3102961 0.554802632,20.1632566 0.848881579,20.1484539 L4.08572368,20.1484539 Z" id="Fill-10" fill="#540022"></path>
                        <path d="M10.7682237,20.1485526 C11.0623026,20.1485526 11.2093421,20.2946053 11.2093421,20.5886842 L11.2093421,27.4709211 C11.2093421,27.7501974 11.3711842,27.9120395 11.6514474,27.9120395 L14.9326974,27.9120395 C15.2277632,27.9120395 15.3738158,28.0590789 15.3738158,28.3521711 L15.3738158,29.9992105 C15.3738158,30.2932895 15.2277632,30.4413158 14.9326974,30.4413158 L9.12019737,30.4413158 C8.83993421,30.4413158 8.67809211,30.2794737 8.67809211,29.9992105 L8.67809211,20.5886842 C8.67809211,20.2946053 8.83993421,20.1485526 9.12019737,20.1485526 L10.7682237,20.1485526 Z" id="Fill-12" fill="#72002C"></path>
                        <path d="M20.8930263,23.7066118 C20.8930263,23.0010197 20.7903947,22.6487171 19.8183553,22.6487171 C18.8482895,22.6487171 18.7446711,23.0010197 18.7446711,23.7066118 L18.7446711,25.3092434 C18.7446711,25.5885197 18.9065132,25.7503618 19.1867763,25.7503618 L20.4519079,25.7503618 C20.7459868,25.7365461 20.8930263,25.5885197 20.8930263,25.2944408 L20.8930263,23.7066118 Z M23.4242763,29.9404934 C23.4242763,30.2651645 23.2772368,30.4408224 22.9831579,30.4408224 L21.3341447,30.4408224 C21.0548684,30.4408224 20.8930263,30.2937829 20.8930263,29.9997039 L20.8930263,28.7207566 C20.8930263,28.4266776 20.7459868,28.2796382 20.4519079,28.2796382 L19.1867763,28.2796382 C18.9065132,28.2796382 18.7446711,28.4266776 18.7446711,28.7207566 L18.7446711,29.9997039 C18.7446711,30.2937829 18.5976316,30.4408224 18.3035526,30.4408224 L16.6545395,30.4408224 C16.3752632,30.4408224 16.2134211,30.2651645 16.2134211,29.9404934 L16.2134211,23.7066118 C16.2134211,21.8543092 16.5084868,19.8835855 19.8183553,19.8835855 C23.1301974,19.8835855 23.4242763,21.8543092 23.4242763,23.7066118 L23.4242763,29.9404934 Z" id="Fill-14" fill="#72002C"></path>
                        <path d="M26.8246382,20.1485526 C27.0743092,20.1485526 27.2361513,20.2511842 27.3249671,20.4870395 L28.4134539,23.2215789 C28.4726645,23.3538158 28.5614803,23.3538158 28.6197039,23.2215789 L29.7091776,20.4870395 C29.7970066,20.2511842 29.9588487,20.1485526 30.2095066,20.1485526 L32.3134539,20.1485526 C32.6519408,20.1485526 32.7989803,20.3538158 32.6519408,20.6626974 L30.0170724,26.5442763 C29.9884539,26.6034868 29.9884539,26.6626974 29.9884539,26.7209211 L29.9884539,29.9992105 C29.9884539,30.2794737 29.8414145,30.4413158 29.5473355,30.4413158 L27.4868092,30.4413158 C27.2075329,30.4413158 27.0456908,30.2794737 27.0456908,29.9992105 L27.0456908,26.7209211 C27.0456908,26.6626974 27.0456908,26.6034868 27.0150987,26.5442763 L24.3664145,20.6626974 C24.219375,20.3538158 24.3664145,20.1485526 24.7058882,20.1485526 L26.8246382,20.1485526 Z" id="Fill-16" fill="#72002C"></path>
                        <path d="M47.4192434,20.6332895 C47.3600329,20.3253947 47.5080592,20.14875 47.8159539,20.14875 L49.5675987,20.14875 C49.8320724,20.14875 50.0245066,20.2809868 50.053125,20.5306579 L50.8929276,26.6619079 C50.9215461,26.8089474 51.0399671,26.8089474 51.0685855,26.6619079 L52.0544408,20.5306579 C52.0988487,20.2809868 52.2754934,20.14875 52.5399671,20.14875 L53.8060855,20.14875 C54.0705592,20.14875 54.2472039,20.2809868 54.2916118,20.5306579 L55.2774671,26.6619079 C55.3070724,26.8089474 55.4245066,26.8089474 55.4550987,26.6619079 L56.2929276,20.5306579 C56.3225329,20.2809868 56.5139803,20.14875 56.7784539,20.14875 L58.5300987,20.14875 C58.8389803,20.14875 58.9860197,20.3253947 58.9268092,20.6332895 L57.1169408,30.0586184 C57.0725329,30.3082895 56.896875,30.4405263 56.6314145,30.4405263 L54.5560855,30.4405263 C54.2916118,30.4405263 54.1297697,30.3082895 54.0705592,30.0586184 L53.2613487,26.4418421 C53.2327303,26.2938158 53.1143092,26.2938158 53.0847039,26.4418421 L52.2754934,30.0586184 C52.2162829,30.3082895 52.0544408,30.4405263 51.7899671,30.4405263 L49.7146382,30.4405263 C49.4501645,30.4405263 49.2735197,30.3082895 49.2291118,30.0586184 L47.4192434,20.6332895 Z" id="Fill-18" fill="#72002C"></path>
                        <path d="M61.9307566,20.1485526 C62.2248355,20.1485526 62.371875,20.2946053 62.371875,20.5886842 L62.371875,29.9992105 C62.371875,30.2794737 62.2248355,30.4413158 61.9307566,30.4413158 L60.3113487,30.4413158 C60.0320724,30.4413158 59.8702303,30.2794737 59.8702303,29.9992105 L59.8702303,20.5886842 C59.8702303,20.2946053 60.0320724,20.1485526 60.3113487,20.1485526 L61.9307566,20.1485526 Z" id="Fill-20" fill="#72002C"></path>
                        <path d="M66.1981579,23.11875 C66.1981579,22.8246711 66.0511184,22.6776316 65.7570395,22.6776316 L63.6965132,22.6776316 C63.4172368,22.6776316 63.2553947,22.5157895 63.2553947,22.2355263 L63.2553947,20.5894737 C63.2553947,20.2953947 63.4172368,20.1483553 63.6965132,20.1483553 L71.2310526,20.1483553 C71.5251316,20.1483553 71.6731579,20.2953947 71.6731579,20.5894737 L71.6731579,22.2355263 C71.6731579,22.5157895 71.5251316,22.6776316 71.2310526,22.6776316 L69.1715132,22.6776316 C68.89125,22.6776316 68.7294079,22.8246711 68.7294079,23.11875 L68.7294079,30 C68.7294079,30.2792763 68.5823684,30.4411184 68.2873026,30.4411184 L66.6392763,30.4411184 C66.36,30.4411184 66.1981579,30.2792763 66.1981579,30 L66.1981579,23.11875 Z" id="Fill-22" fill="#72002C"></path>
                    </g>
                    <g id="Group-27" transform="translate(4.934211, 4.093421)">
                        <mask id="mask-4" fill="white">
                            <use xlink:href="#path-3"></use>
                        </mask>
                        <g id="Clip-26"></g>
                        <polygon id="Fill-25" fill="#540022" mask="url(#mask-4)" points="95.1345395 17.1591118 33.3246711 17.1591118 33.3246711 -40.6066776 9.82796053 -40.6066776 9.82796053 17.1591118 -11.8421053 17.1591118 -11.8421053 26.4936513 9.82796053 26.4936513 9.82796053 66.3699671 33.3246711 66.3699671 33.3246711 26.4936513 95.1345395 26.4936513"></polygon>
                    </g>
                    <g id="Group-68" transform="translate(0.000000, 17.909211)">
                        <path d="M74.6460197,2.38539474 C74.9252961,2.38539474 75.0871382,2.54723684 75.0871382,2.82552632 L75.0871382,6.5025 C75.0871382,6.78177632 75.2489803,6.94263158 75.5292434,6.94263158 L76.9414145,6.94263158 C77.2354934,6.94263158 77.3825329,6.78177632 77.3825329,6.5025 L77.3825329,2.82552632 C77.3825329,2.54723684 77.5453618,2.38539474 77.8246382,2.38539474 L79.4726645,2.38539474 C79.7667434,2.38539474 79.9137829,2.53144737 79.9137829,2.82552632 L79.9137829,12.2360526 C79.9137829,12.5163158 79.7667434,12.6781579 79.4726645,12.6781579 L77.8246382,12.6781579 C77.5453618,12.6781579 77.3825329,12.5163158 77.3825329,12.2360526 L77.3825329,9.91302632 C77.3825329,9.61894737 77.2354934,9.47289474 76.9414145,9.47289474 L75.5292434,9.47289474 C75.2489803,9.47289474 75.0871382,9.61894737 75.0871382,9.91302632 L75.0871382,12.2360526 C75.0871382,12.5163158 74.9400987,12.6781579 74.6460197,12.6781579 L72.9970066,12.6781579 C72.7177303,12.6781579 72.5558882,12.5163158 72.5558882,12.2360526 L72.5558882,2.82552632 C72.5558882,2.53144737 72.7029276,2.38539474 72.9970066,2.38539474 L74.6460197,2.38539474 Z" id="Fill-28" fill="#540022"></path>
                        <path d="M4.17453947,4.98838816 C4.88111842,4.98838816 5.23440789,4.90055921 5.23440789,3.98871711 C5.23440789,3.076875 4.88111842,2.98904605 4.17453947,2.98904605 L3.37914474,2.98904605 C3.09986842,2.98904605 2.93802632,3.13608553 2.93802632,3.43016447 L2.93802632,4.54726974 C2.93802632,4.82654605 3.09986842,4.98838816 3.37914474,4.98838816 L4.17453947,4.98838816 Z M4.08572368,0.459769737 C6.70578947,0.459769737 7.76565789,1.576875 7.76565789,3.98871711 C7.76565789,6.40055921 6.70578947,7.51766447 4.08572368,7.51766447 L3.37914474,7.51766447 C3.09986842,7.51766447 2.93802632,7.66470395 2.93802632,7.95878289 L2.93802632,10.3114145 C2.93802632,10.6045066 2.79197368,10.7525329 2.49690789,10.7525329 L0.848881579,10.7525329 C0.569605263,10.7525329 0.407763158,10.5906908 0.407763158,10.3114145 L0.407763158,0.915690789 C0.407763158,0.621611842 0.554802632,0.474572368 0.848881579,0.459769737 L4.08572368,0.459769737 Z" id="Fill-30" fill="#FFFFFF"></path>
                        <path d="M10.7682237,0.459967105 C11.0623026,0.459967105 11.2093421,0.606019737 11.2093421,0.901085526 L11.2093421,7.78233553 C11.2093421,8.06161184 11.3711842,8.22345395 11.6514474,8.22345395 L14.9326974,8.22345395 C15.2277632,8.22345395 15.3738158,8.37049342 15.3738158,8.66358553 L15.3738158,10.310625 C15.3738158,10.6047039 15.2277632,10.7527303 14.9326974,10.7527303 L9.12019737,10.7527303 C8.83993421,10.7527303 8.67809211,10.5908882 8.67809211,10.310625 L8.67809211,0.901085526 C8.67809211,0.606019737 8.83993421,0.459967105 9.12019737,0.459967105 L10.7682237,0.459967105 Z" id="Fill-32" fill="#FFFFFF"></path>
                        <path d="M20.8930263,4.01792763 C20.8930263,3.31233553 20.7903947,2.96003289 19.8183553,2.96003289 C18.8482895,2.96003289 18.7446711,3.31233553 18.7446711,4.01792763 L18.7446711,5.62055921 C18.7446711,5.89983553 18.9065132,6.06167763 19.1867763,6.06167763 L20.4519079,6.06167763 C20.7459868,6.04786184 20.8930263,5.89983553 20.8930263,5.60575658 L20.8930263,4.01792763 Z M23.4242763,10.2518092 C23.4242763,10.5764803 23.2772368,10.7521382 22.9831579,10.7521382 L21.3341447,10.7521382 C21.0548684,10.7521382 20.8930263,10.6050987 20.8930263,10.3110197 L20.8930263,9.03207237 C20.8930263,8.73799342 20.7459868,8.59095395 20.4519079,8.59095395 L19.1867763,8.59095395 C18.9065132,8.59095395 18.7446711,8.73799342 18.7446711,9.03207237 L18.7446711,10.3110197 C18.7446711,10.6050987 18.5976316,10.7521382 18.3035526,10.7521382 L16.6545395,10.7521382 C16.3752632,10.7521382 16.2134211,10.5764803 16.2134211,10.2518092 L16.2134211,4.01792763 C16.2134211,2.165625 16.5084868,0.194901316 19.8183553,0.194901316 C23.1301974,0.194901316 23.4242763,2.165625 23.4242763,4.01792763 L23.4242763,10.2518092 Z" id="Fill-34" fill="#FFFFFF"></path>
                        <path d="M26.8246382,0.459967105 C27.0743092,0.459967105 27.2361513,0.562598684 27.3249671,0.798453947 L28.4134539,3.53299342 C28.4726645,3.66523026 28.5614803,3.66523026 28.6197039,3.53299342 L29.7091776,0.798453947 C29.7970066,0.562598684 29.9588487,0.459967105 30.2095066,0.459967105 L32.3134539,0.459967105 C32.6519408,0.459967105 32.7989803,0.665230263 32.6519408,0.974111842 L30.0170724,6.85569079 C29.9884539,6.91490132 29.9884539,6.97411184 29.9884539,7.03233553 L29.9884539,10.310625 C29.9884539,10.5908882 29.8414145,10.7527303 29.5473355,10.7527303 L27.4868092,10.7527303 C27.2075329,10.7527303 27.0456908,10.5908882 27.0456908,10.310625 L27.0456908,7.03233553 C27.0456908,6.97411184 27.0456908,6.91490132 27.0150987,6.85569079 L24.3664145,0.974111842 C24.219375,0.665230263 24.3664145,0.459967105 24.7058882,0.459967105 L26.8246382,0.459967105 Z" id="Fill-36" fill="#FFFFFF"></path>
                        <path d="M47.4192434,0.944703947 C47.3600329,0.636809211 47.5080592,0.460164474 47.8159539,0.460164474 L49.5675987,0.460164474 C49.8320724,0.460164474 50.0245066,0.592401316 50.053125,0.842072368 L50.8929276,6.97332237 C50.9215461,7.12036184 51.0399671,7.12036184 51.0685855,6.97332237 L52.0544408,0.842072368 C52.0988487,0.592401316 52.2754934,0.460164474 52.5399671,0.460164474 L53.8060855,0.460164474 C54.0705592,0.460164474 54.2472039,0.592401316 54.2916118,0.842072368 L55.2774671,6.97332237 C55.3070724,7.12036184 55.4245066,7.12036184 55.4550987,6.97332237 L56.2929276,0.842072368 C56.3225329,0.592401316 56.5139803,0.460164474 56.7784539,0.460164474 L58.5300987,0.460164474 C58.8389803,0.460164474 58.9860197,0.636809211 58.9268092,0.944703947 L57.1169408,10.3700329 C57.0725329,10.6206908 56.896875,10.7519408 56.6314145,10.7519408 L54.5560855,10.7519408 C54.2916118,10.7519408 54.1297697,10.6206908 54.0705592,10.3700329 L53.2613487,6.75325658 C53.2327303,6.60523026 53.1143092,6.60523026 53.0847039,6.75325658 L52.2754934,10.3700329 C52.2162829,10.6206908 52.0544408,10.7519408 51.7899671,10.7519408 L49.7146382,10.7519408 C49.4501645,10.7519408 49.2735197,10.6206908 49.2291118,10.3700329 L47.4192434,0.944703947 Z" id="Fill-38" fill="#FFFFFF"></path>
                        <path d="M61.9307566,0.459967105 C62.2248355,0.459967105 62.371875,0.606019737 62.371875,0.901085526 L62.371875,10.310625 C62.371875,10.5908882 62.2248355,10.7527303 61.9307566,10.7527303 L60.3113487,10.7527303 C60.0320724,10.7527303 59.8702303,10.5908882 59.8702303,10.310625 L59.8702303,0.901085526 C59.8702303,0.606019737 60.0320724,0.459967105 60.3113487,0.459967105 L61.9307566,0.459967105 Z" id="Fill-40" fill="#FFFFFF"></path>
                        <path d="M66.1981579,3.43006579 C66.1981579,3.13598684 66.0511184,2.98894737 65.7570395,2.98894737 L63.6965132,2.98894737 C63.4172368,2.98894737 63.2553947,2.82710526 63.2553947,2.54684211 L63.2553947,0.900789474 C63.2553947,0.606710526 63.4172368,0.459671053 63.6965132,0.459671053 L71.2310526,0.459671053 C71.5251316,0.459671053 71.6731579,0.606710526 71.6731579,0.900789474 L71.6731579,2.54684211 C71.6731579,2.82710526 71.5251316,2.98894737 71.2310526,2.98894737 L69.1715132,2.98894737 C68.89125,2.98894737 68.7294079,3.13598684 68.7294079,3.43006579 L68.7294079,10.3113158 C68.7294079,10.5905921 68.5823684,10.7524342 68.2873026,10.7524342 L66.6392763,10.7524342 C66.36,10.7524342 66.1981579,10.5905921 66.1981579,10.3113158 L66.1981579,3.43006579 Z" id="Fill-42" fill="#FFFFFF"></path>
                        <path d="M74.6460197,0.459967105 C74.9252961,0.459967105 75.0871382,0.621809211 75.0871382,0.901085526 L75.0871382,4.57707237 C75.0871382,4.85634868 75.2489803,5.01819079 75.5292434,5.01819079 L76.9414145,5.01819079 C77.2354934,5.01819079 77.3825329,4.85634868 77.3825329,4.57707237 L77.3825329,0.901085526 C77.3825329,0.621809211 77.5453618,0.459967105 77.8246382,0.459967105 L79.4726645,0.459967105 C79.7667434,0.459967105 79.9137829,0.606019737 79.9137829,0.901085526 L79.9137829,10.310625 C79.9137829,10.5908882 79.7667434,10.7527303 79.4726645,10.7527303 L77.8246382,10.7527303 C77.5453618,10.7527303 77.3825329,10.5908882 77.3825329,10.310625 L77.3825329,7.98858553 C77.3825329,7.69351974 77.2354934,7.54746711 76.9414145,7.54746711 L75.5292434,7.54746711 C75.2489803,7.54746711 75.0871382,7.69351974 75.0871382,7.98858553 L75.0871382,10.310625 C75.0871382,10.5908882 74.9400987,10.7527303 74.6460197,10.7527303 L72.9970066,10.7527303 C72.7177303,10.7527303 72.5558882,10.5908882 72.5558882,10.310625 L72.5558882,0.901085526 C72.5558882,0.606019737 72.7029276,0.459967105 72.9970066,0.459967105 L74.6460197,0.459967105 Z" id="Fill-44" fill="#FFFFFF"></path>
                        <path d="M43.3677632,2.61572368 C42.4825658,1.73151316 41.0457237,1.73151316 40.1605263,2.61572368 C39.2753289,1.73151316 37.8394737,1.73151316 36.9542763,2.61572368 C36.0690789,3.49993421 36.0690789,4.93480263 36.9542763,5.81901316 L40.1605263,9.02328947 L43.3677632,5.81901316 C44.2529605,4.93480263 44.2529605,3.49993421 43.3677632,2.61572368" id="Fill-46" fill="#FFFFFF"></path>
                        <path d="M4.03766447,16.6753618 C4.52319079,16.6714145 4.80246711,16.9447697 4.80246711,17.4224013 C4.80246711,19.9319408 4.80148026,21.1872039 4.80049342,23.6977303 C4.80049342,24.174375 5.08273026,24.4398355 5.56628289,24.4240461 C6.54720395,24.3895066 7.03667763,24.3727303 8.01759868,24.3421382 C8.52878289,24.324375 8.78338816,24.0441118 8.78338816,23.5733882 C8.78536184,21.0954276 8.78536184,19.8589145 8.78634868,17.3809539 C8.78634868,16.9092434 9.06759868,16.6358882 9.55213816,16.6319408 C10.6958882,16.6240461 11.2672697,16.6191118 12.4120066,16.6131434 C12.9231908,16.6092434 13.1777961,16.8520066 13.1777961,17.3414803 C13.1738487,23.6010197 13.171875,26.7302961 13.1689145,32.9898355 C13.1679276,33.4546382 12.9133224,33.7378618 12.403125,33.7645066 C11.2583882,33.8286513 10.6870066,33.8612171 9.54424342,33.9302961 C9.05871711,33.9599013 8.77944079,33.7052961 8.77944079,33.2335855 C8.77944079,31.6684539 8.78042763,30.8849013 8.78141447,29.3197697 C8.78141447,28.8253618 8.52680921,28.5885197 8.015625,28.6122039 C7.03470395,28.6575987 6.54523026,28.6802961 5.56529605,28.7296382 C5.08075658,28.7533224 4.79851974,29.0197697 4.79851974,29.5210855 L4.79851974,33.4872039 C4.79851974,33.9638487 4.54391447,34.2569408 4.03371711,34.2944408 C2.89095395,34.3763487 2.31858553,34.4177961 1.17779605,34.5066118 C0.691282895,34.543125 0.412006579,34.2855592 0.412006579,33.8010197 L0.412006579,17.4737171 C0.412006579,16.9635197 0.667598684,16.7049671 1.17779605,16.7010197 C2.32154605,16.6901645 2.89391447,16.6852303 4.03766447,16.6753618" id="Fill-48" fill="#540022"></path>
                        <path d="M28.9361842,16.5356219 C29.4473684,16.5346382 29.7019737,16.7704934 29.7019737,17.2451645 C29.7009868,18.3060197 29.7009868,18.8359539 29.7009868,19.8968092 C29.7009868,20.3468092 29.4453947,20.6102961 28.9342105,20.6142434 C26.4621711,20.6310197 25.2256579,20.6428618 22.7536184,20.6714803 C22.2690789,20.6774013 21.9878289,20.9201645 21.9878289,21.4007566 L21.9878289,22.1665461 C21.9868421,22.6214803 22.2671053,22.8810197 22.7526316,22.873125 C24.3365132,22.8484539 25.1279605,22.8385855 26.7118421,22.8188487 C27.2230263,22.8129276 27.4766447,23.0477961 27.4766447,23.5224671 C27.4766447,24.5862829 27.4766447,25.1181908 27.4766447,26.1820066 C27.4766447,26.6329934 27.2210526,26.8984539 26.7098684,26.9083224 C25.1259868,26.9359539 24.3335526,26.9517434 22.7496711,26.9882566 C22.2651316,27.0000987 21.9838816,27.2468092 21.9838816,27.7244408 L21.9838816,28.4912171 C21.9838816,28.9461513 22.2631579,29.2027303 22.7486842,29.1889145 C25.2217105,29.1227961 26.4572368,29.0961513 28.93125,29.0527303 C29.4424342,29.0438487 29.6970395,29.2757566 29.6970395,29.7504276 C29.6970395,30.8112829 29.6970395,31.3422039 29.6960526,32.4030592 C29.6960526,32.8767434 29.4404605,33.1185197 28.9292763,33.129375 C24.6365132,33.2241118 22.4911184,33.2941776 18.2003289,33.4806908 C17.7157895,33.5014145 17.4355263,33.2487829 17.4355263,32.7889145 C17.4394737,26.5964803 17.4414474,23.5007566 17.4444079,17.3083224 C17.4444079,16.8247697 17.7266447,16.5810197 18.2111842,16.5780592 C22.5009868,16.5563487 24.6453947,16.5474671 28.9361842,16.5356219" id="Fill-50" fill="#540022"></path>
                        <path d="M41.3757237,22.2215132 C41.3757237,21.0905921 41.1961184,20.5241447 39.5115789,20.5251303 C37.8250658,20.5251303 37.6464474,21.0915789 37.6464474,22.2234868 L37.6464474,24.79125 C37.6464474,25.2382895 37.9276974,25.4958553 38.4132237,25.4948712 C39.2925,25.4938816 39.7306579,25.4928947 40.6099342,25.4938816 C41.1201316,25.4711842 41.3757237,25.2363158 41.3757237,24.7646053 L41.3757237,22.2215132 Z M45.7701344,32.235 C45.7711184,32.7540789 45.5155263,33.0343421 45.0053289,33.0294079 C43.8605921,33.0175658 43.2872368,33.0146053 42.1425,33.0096711 C41.6569737,33.0076974 41.3757237,32.7718421 41.3757237,32.3011184 L41.3757237,30.2524342 C41.3757237,29.7807237 41.1211184,29.5448684 40.6099342,29.5438816 C39.7306579,29.5438816 39.2915132,29.5438816 38.4122368,29.5468421 C37.9276974,29.5478289 37.6464474,29.7846711 37.6464474,30.2563816 C37.6464474,31.0764474 37.6464474,31.4859868 37.6454605,32.3060526 C37.6454605,32.7757895 37.3898684,33.0136184 36.8786842,33.0155921 C35.7339474,33.0234868 35.1615789,33.0284211 34.0168421,33.0423291 C33.5313158,33.0481579 33.2500658,32.7688816 33.2500658,32.2498026 C33.2520395,28.2451974 33.2520395,26.2438816 33.2540132,22.2402632 C33.2540132,19.2659211 33.7651974,16.0981577 39.5115789,16.0981577 C45.2579605,16.0971711 45.7681579,19.2609868 45.7681579,22.2333553 C45.7701344,26.2340132 45.7701344,28.2353289 45.7701344,32.235 L45.7701344,32.235 Z" id="Fill-52" fill="#540022"></path>
                        <path d="M55.1443421,20.6468092 C54.6844737,20.641875 54.3528947,20.9487829 54.3528947,21.3770724 C54.3528947,22.0816776 54.3528947,22.4339803 54.3538816,23.1375987 C54.3538816,23.566875 54.6864474,23.8806908 55.1463158,23.8875987 C55.6673684,23.8954934 55.9278947,23.8994408 56.4479605,23.9083224 C57.6736184,23.9280592 58.2874342,23.7958224 58.2874342,22.3116118 C58.2854605,20.8254276 57.6726316,20.6734539 56.4459868,20.660625 C55.9259211,20.6547039 55.6653947,20.6527303 55.1443421,20.6468092 M63.3746053,32.2323355 C63.7318421,32.8777303 63.3242763,33.5379276 62.5328289,33.5014145 C61.3683553,33.4510855 60.7851316,33.4264145 59.6206579,33.3810197 C59.3660526,33.3721382 59.1351316,33.2428618 59.0325,33.0227961 C57.9696711,31.0550329 57.4377632,30.0780592 56.3749342,28.1329934 C56.3226316,28.0609539 56.2456579,28.010625 56.1706579,28.0096382 C55.7621053,27.9997697 55.5578289,27.9948355 55.1482895,27.9859539 C54.6884211,27.9770724 54.3568421,28.2790461 54.3568421,28.7073355 C54.3568421,30.2112829 54.3578289,30.9642434 54.3588158,32.4681908 C54.3588158,32.8964803 54.0272368,33.1964803 53.5663816,33.1846382 C52.4216447,33.1540461 51.8492763,33.1402303 50.7055263,33.1165461 C50.2456579,33.1066776 49.9121053,32.7928618 49.9121053,32.3665461 C49.9101316,26.3270724 49.9091447,23.3063487 49.9061842,17.2658882 C49.9061842,16.8405592 50.23875,16.5336513 50.6986184,16.5346358 C52.9357895,16.5405592 54.0548684,16.5435197 56.2900658,16.5524013 C60.8374342,16.5691776 62.6759211,18.4195066 62.6788816,22.385625 C62.6798684,24.6346382 62.0936842,26.191875 60.7407237,27.0701645 C60.6390789,27.1392434 60.6134211,27.2586513 60.6647368,27.3800329 C61.7482895,29.3073355 62.2900658,30.2774013 63.3746053,32.2323355" id="Fill-54" fill="#540022"></path>
                        <path d="M70.3411184,21.6162829 C70.3401316,21.121875 70.0845395,20.8702303 69.5743421,20.859375 C68.1444079,20.8317434 67.4309211,20.8189145 66.0009868,20.7942434 C65.5144737,20.7853618 65.2332237,20.5139803 65.2332237,20.0511513 C65.2332237,18.9616776 65.2322368,18.4169408 65.23125,17.3254934 C65.23125,16.8389803 65.5125,16.5972039 65.9980263,16.6011038 C71.2263158,16.6327303 73.8414474,16.6534539 79.0707237,16.7018092 C79.5809211,16.7047697 79.8355263,16.9633224 79.8355263,17.4735197 L79.8355263,20.3304276 C79.8355263,20.8149671 79.5809211,21.0893092 79.0707237,21.0754934 C77.6398026,21.0389803 76.9273026,21.0202303 75.4973684,20.9876645 C75.0108553,20.9768092 74.7315789,21.2205592 74.7315789,21.7208882 C74.7325658,26.4074013 74.7335526,28.7511513 74.7355263,33.4386513 C74.7355263,33.9152961 74.4799342,34.1728618 73.9707237,34.1383224 C72.8279605,34.0613487 72.2546053,34.0248355 71.1118421,33.9557566 C70.6282895,33.9261513 70.3470395,33.6379934 70.3470395,33.1682566 C70.3450658,28.546875 70.3430921,26.2366776 70.3411184,21.6162829" id="Fill-56" fill="#540022"></path>
                        <path d="M4.03766447,14.7354276 C4.52319079,14.7334539 4.80246711,15.0087829 4.80246711,15.4874013 C4.80246711,17.9969408 4.80246711,19.2512171 4.80148026,21.7617434 C4.80049342,22.239375 5.08273026,22.5068092 5.56825658,22.4929934 C6.54720395,22.4653618 7.03766447,22.4515461 8.01759868,22.426875 C8.52878289,22.4130592 8.78536184,22.1337829 8.78536184,21.6640461 C8.78536184,19.1860855 8.78634868,17.9485855 8.78634868,15.470625 C8.78634868,14.9999013 9.06858553,14.7275329 9.553125,14.7265461 C10.696875,14.7245724 11.2692434,14.7235855 12.4120066,14.7225957 C12.9231908,14.7216118 13.1797697,14.9663487 13.1787857,15.4548355 C13.1758224,21.7153618 13.1738487,24.8446382 13.1699013,31.1051645 C13.1699013,31.5699671 12.9133224,31.8512171 12.4041118,31.8758882 C11.259375,31.933125 10.6879934,31.9627303 9.54424342,32.0249013 C9.06069079,32.0515461 8.77944079,31.7949671 8.78042763,31.3242434 C8.78141447,29.7591118 8.78141447,28.9765461 8.78141447,27.4104276 C8.78240132,26.9150329 8.52680921,26.6772039 8.015625,26.6969408 C7.03667763,26.7364145 6.54523026,26.7571382 5.56628289,26.7995724 C5.08174342,26.8202961 4.79950658,27.0837829 4.79950658,27.5850987 C4.79851974,29.1719408 4.79851974,29.9653618 4.79851974,31.5512171 C4.79851974,32.0278618 4.54490132,32.3199671 4.03371711,32.3545066 C2.89095395,32.4275329 2.31957237,32.4660197 1.17779605,32.5449671 C0.691282895,32.5795066 0.412006579,32.3179934 0.412006579,31.8334539 L0.412006579,15.5061513 C0.412006579,14.9959539 0.667598684,14.7403618 1.17779605,14.739375 C2.32253289,14.7374013 2.89490132,14.7364145 4.03766447,14.7354276" id="Fill-58" fill="#FFFFFF"></path>
                        <path d="M28.9371711,14.7083882 C29.4483553,14.7083882 29.7029605,14.9442434 29.7029605,15.4189145 C29.7019737,16.4797697 29.7019737,17.0097039 29.7009868,18.0715461 C29.7009868,18.5205592 29.4473684,18.7830592 28.9361842,18.7860197 C26.4631579,18.7988487 25.2276316,18.8067434 22.7546053,18.8274671 C22.2700658,18.8314145 21.9898026,19.0741776 21.9888158,19.5518092 C21.9888158,19.8597039 21.9888158,20.0126645 21.9878289,20.3195724 C21.9878289,20.7735197 22.2690789,21.0340461 22.7536184,21.028125 C24.3375,21.009375 25.1299342,21.0004934 26.7128289,20.9856908 C27.2230263,20.9797697 27.4786184,21.2166118 27.4786184,21.6912829 C27.4776316,22.7550987 27.4776316,23.2870066 27.4776316,24.3508224 C27.4776316,24.8027961 27.2210526,25.0662829 26.7108553,25.0741776 C25.1279605,25.0988487 24.3355263,25.1126645 22.7506579,25.1432566 C22.2671053,25.153125 21.9858553,25.3978618 21.9858553,25.8774671 C21.9848684,26.184375 21.9848684,26.3373355 21.9848684,26.6442434 C21.9838816,27.1001645 22.2651316,27.3557566 22.7496711,27.3449013 C25.2217105,27.2856908 26.4592105,27.2620066 28.9322368,27.2254934 C29.4434211,27.2175987 29.6980263,27.4504934 29.6980263,27.9241776 L29.6980263,30.5768092 C29.6970395,31.0504934 29.4414474,31.2922697 28.9302632,31.3011513 C24.6384868,31.3870066 22.4930921,31.4511513 18.2023026,31.6189145 C17.7167763,31.6376645 17.4355263,31.3830592 17.4365106,30.9241776 C17.4404605,24.7307566 17.4424342,21.6360197 17.4444079,15.4425987 C17.4453947,14.9590461 17.7266447,14.7172697 18.2121711,14.7162829 C22.5019737,14.7123355 24.6473684,14.7103618 28.9371711,14.7083882" id="Fill-60" fill="#FFFFFF"></path>
                        <path d="M41.3757237,20.4049342 C41.3757237,19.2740132 41.1961184,18.7085526 39.5115789,18.7095382 C37.8250658,18.7095382 37.6464474,19.2759868 37.6464474,20.4069079 L37.6464474,22.9746711 C37.6464474,23.4226974 37.9276974,23.6802632 38.4132237,23.6792791 C39.2925,23.6773026 39.7306579,23.6773026 40.6099342,23.6773026 C41.1201316,23.6546053 41.3757237,23.4197368 41.3757237,22.9480263 L41.3757237,20.4049342 Z M45.7701316,30.4174342 C45.7701316,30.9355263 45.5155263,31.2157895 45.0053289,31.2108553 C43.8605921,31.2009868 43.2872368,31.1980263 42.1425,31.1940789 C41.6569737,31.1921053 41.3757237,30.9552632 41.3757237,30.4845395 L41.3757237,28.4358553 C41.3757237,27.9651316 41.1211184,27.7292763 40.6099342,27.7282895 C39.7306579,27.7282895 39.2915132,27.7282895 38.4122368,27.7302632 C37.9276974,27.7322368 37.6464474,27.9680921 37.6464474,28.4398026 L37.6464474,30.4884868 C37.6464474,30.9601974 37.3898684,31.1970395 36.8786842,31.1990132 C35.7339474,31.2059211 35.1615789,31.2108553 34.0168421,31.2237485 C33.5313158,31.2286184 33.2510526,30.9493421 33.2510526,30.4292763 C33.2520395,26.4256579 33.2530263,24.4233553 33.2540132,20.4197368 C33.2540132,17.4453947 33.7661842,14.2815789 39.5115789,14.2815789 C45.2569737,14.2815789 45.7671711,17.4424342 45.7681579,20.4157895 C45.7691447,24.4154605 45.7701316,26.4157895 45.7701316,30.4174342 L45.7701316,30.4174342 Z" id="Fill-62" fill="#FFFFFF"></path>
                        <path d="M55.1433553,18.81 C54.6834868,18.8060526 54.3509211,19.1139474 54.3509211,19.54125 C54.3519079,20.2458553 54.3528947,20.5981579 54.3528947,21.3027632 C54.3528947,21.7320395 54.6844737,22.0438816 55.1453289,22.0498026 C55.6653947,22.0567105 55.9269079,22.0596711 56.4479605,22.0675658 C57.6726316,22.0823684 58.2864474,21.9491447 58.2854617,20.4639474 C58.2844737,18.9777632 57.6716447,18.82875 56.4459868,18.8198684 C55.9249342,18.8149342 55.6634211,18.8129605 55.1433553,18.81 M63.3736184,30.3649342 C63.7318421,31.0083553 63.3232895,31.6695395 62.5308553,31.6379605 C61.3673684,31.5915789 60.7851316,31.5698684 59.6206579,31.5294079 C59.3640789,31.5205263 59.1351316,31.3922368 59.0325,31.1731579 C57.9686842,29.2083553 57.4367763,28.2333553 56.3729605,26.2922368 C56.3226316,26.2192105 56.2456579,26.1708553 56.1686842,26.1688816 L55.1473026,26.1491447 C54.6874342,26.14125 54.3548684,26.4442105 54.3558553,26.8725 C54.3568421,28.3764474 54.3568421,29.1284211 54.3568421,30.6323684 C54.3578289,31.0616447 54.0252632,31.3626316 53.5653947,31.3517763 C52.4216447,31.3241447 51.8492763,31.3113158 50.7045395,31.2896053 C50.2446711,31.2817105 49.9121053,30.9678947 49.9121053,30.5425658 C49.9101316,24.5021053 49.9081579,21.4813816 49.9061842,15.4409211 C49.9061842,15.0146053 50.2377632,14.7086842 50.6976316,14.7086842 C52.9348026,14.7096711 54.0528947,14.7106579 56.2900658,14.7116447 C60.8354605,14.7155921 62.6749342,16.5550658 62.6778947,20.5201974 C62.6798684,22.7701974 62.0926974,24.3303947 60.7397368,25.2126316 C60.6380921,25.2836842 60.6114474,25.4030921 60.66375,25.5244737 C61.7463158,27.4468421 62.2890789,28.4139474 63.3736184,30.3649342" id="Fill-64" fill="#FFFFFF"></path>
                        <path d="M70.3392434,19.7120724 C70.3392434,19.2186513 70.0846382,18.9679934 69.5744408,18.9610855 C68.1435197,18.9413487 67.4290461,18.9324671 65.9991118,18.9137171 C65.5135855,18.9087829 65.2323355,18.6374013 65.2323355,18.1745724 C65.2313487,17.0850987 65.2313487,16.539375 65.2303618,15.4499013 C65.2303618,14.9633882 65.510625,14.7196382 65.9971382,14.720622 C71.2254276,14.7265461 73.8405592,14.7304934 79.0708224,14.739375 C79.5810197,14.7403618 79.835625,14.9959539 79.835625,15.5061513 L79.835625,18.3640461 C79.835625,18.8485855 79.5810197,19.1239145 79.0708224,19.1150329 C77.6399013,19.0883882 76.9264145,19.0755592 75.4974671,19.051875 C75.0109539,19.0439803 74.7297039,19.2897039 74.7306908,19.7900329 C74.7316776,24.4775329 74.7336513,26.8212829 74.7346382,31.5087829 C74.7346382,31.9844408 74.4790461,32.2439803 73.9708224,32.2133882 C72.8270724,32.1443092 72.2547039,32.1107566 71.1119408,32.0475987 C70.6274013,32.0209539 70.3461513,31.7347697 70.3451645,31.2650329 C70.3431908,26.6436513 70.3422039,24.3344408 70.3392434,19.7120724" id="Fill-66" fill="#FFFFFF"></path>
                    </g>
                </g>
            </g>
        </g>
    </g>
</svg>